<?xml version="1.0" encoding="UTF-8"?>
<svg version="1.1" xmlns="http://www.w3.org/2000/svg" width="537" height="372">
<path d="M0 0 C177.21 0 354.42 0 537 0 C537 122.76 537 245.52 537 372 C359.79 372 182.58 372 0 372 C0 249.24 0 126.48 0 0 Z " fill="#190628" transform="translate(0,0)"/>
<path d="M0 0 C0 0.66 0 1.32 0 2 C0.54527344 2.12503906 1.09054687 2.25007813 1.65234375 2.37890625 C4.34990976 3.0925718 6.93755976 3.99109297 9.5625 4.9375 C10.98755859 5.44603516 10.98755859 5.44603516 12.44140625 5.96484375 C15 7 15 7 18 9 C18 9.66 18 10.32 18 11 C18.53882813 11.22558594 19.07765625 11.45117188 19.6328125 11.68359375 C31.34731981 18.19809699 39.86210005 29.75389738 43.50488281 42.44433594 C45.58844196 51.43973625 45.58723083 60.62530893 45.6875 69.8125 C45.70480164 70.6108728 45.72210327 71.40924561 45.7399292 72.23181152 C46.01549212 87.56348754 42.24195056 98.21946045 32 110 C31.13761719 111.00740234 31.13761719 111.00740234 30.2578125 112.03515625 C29.23473468 113.22711534 28.20454225 114.41304446 27.1640625 115.58984375 C25.89904299 117.01482183 25.89904299 117.01482183 25 119 C27.64 119 30.28 119 33 119 C33.33 119.99 33.66 120.98 34 122 C33.01 122 32.02 122 31 122 C30.505 123.98 30.505 123.98 30 126 C30.86625 125.505 30.86625 125.505 31.75 125 C34 124 34 124 38 124 C39.59765625 125.7578125 39.59765625 125.7578125 41.0625 128.125 C41.57167969 128.94484375 42.08085937 129.7646875 42.60546875 130.609375 C47 138.14285714 47 138.14285714 47 142 C44.91073239 141.5522998 43.14019678 141.07510542 41.25 140.0625 C37.94760878 138.50303748 34.5543508 137.82934852 31 137 C31.15855469 137.70898438 31.31710937 138.41796875 31.48046875 139.1484375 C32.002501 142.01372727 32.23633854 144.71483048 32.3125 147.625 C32.36857422 149.03652344 32.36857422 149.03652344 32.42578125 150.4765625 C32 153 32 153 30.10546875 154.8359375 C28 156 28 156 26 156 C26 155.01 26 154.02 26 153 C25.01 153.33 24.02 153.66 23 154 C20.66700175 154.03954234 18.33291811 154.04401732 16 154 C15.505 151.525 15.505 151.525 15 149 C18.6678852 147.03810791 21.87248551 145.60698743 26 145 C26 144.67 26 144.34 26 144 C25.01257813 144.01160156 24.02515625 144.02320313 23.0078125 144.03515625 C21.08582031 144.04869141 21.08582031 144.04869141 19.125 144.0625 C17.84882813 144.07410156 16.57265625 144.08570313 15.2578125 144.09765625 C12 144 12 144 10 143 C9.375 140.9375 9.375 140.9375 9 139 C8.0925 139.103125 7.185 139.20625 6.25 139.3125 C3 139 3 139 0.6875 136.8125 C-0.96821413 134.05297646 -1.46987372 132.12302113 -2 129 C-2.680625 129.144375 -3.36125 129.28875 -4.0625 129.4375 C-15.67129075 131.66045993 -27.30216762 131.67111891 -39 130 C-39.11859375 130.60457031 -39.2371875 131.20914063 -39.359375 131.83203125 C-40.3513592 135.18905094 -42.36233972 136.78196749 -45 139 C-45.86625 139.165 -46.7325 139.33 -47.625 139.5 C-48.40875 139.665 -49.1925 139.83 -50 140 C-51.03013277 141.64821244 -52.03114628 143.31503702 -53 145 C-55.1875 145.8125 -55.1875 145.8125 -57 146 C-56.814375 146.969375 -56.62875 147.93875 -56.4375 148.9375 C-56.2209375 150.4534375 -56.2209375 150.4534375 -56 152 C-57 153 -57 153 -58.9609375 153.1328125 C-59.75757813 153.13023437 -60.55421875 153.12765625 -61.375 153.125 C-62.16648438 153.12757813 -62.95796875 153.13015625 -63.7734375 153.1328125 C-66 153 -66 153 -69 152 C-68.34 153.32 -67.68 154.64 -67 156 C-69.93752254 155.69611836 -70.84080893 155.19330344 -72.75 152.875 C-74.6535884 148.49674668 -74.7606927 145.06473734 -73.09765625 140.55078125 C-72.12004387 138.33462792 -71.09680013 136.15932525 -70 134 C-70.928125 134.61875 -70.928125 134.61875 -71.875 135.25 C-76.98292001 138.1104352 -82.4520363 140.15067877 -88 142 C-88 135.48950314 -85.07935106 131.31445844 -81.2109375 126.203125 C-79 124 -79 124 -76.9140625 123.296875 C-75 123.3125 -75 123.3125 -72 124 C-72 123.01 -72 122.02 -72 121 C-72.66 121 -73.32 121 -74 121 C-73.67 120.01 -73.34 119.02 -73 118 C-71.02 118 -69.04 118 -67 118 C-68.25674883 114.22975351 -70.1586611 112.77819804 -73 110 C-74.11874499 108.78408702 -75.22282058 107.55452797 -76.3125 106.3125 C-76.82425781 105.73113281 -77.33601562 105.14976563 -77.86328125 104.55078125 C-79 103 -79 103 -79 101 C-79.99 100.67 -80.98 100.34 -82 100 C-83.1328125 97.4453125 -83.1328125 97.4453125 -84.125 94.125 C-84.45757812 93.05507812 -84.79015625 91.98515625 -85.1328125 90.8828125 C-87.08533675 82.14042916 -87.18156147 73.23810769 -87.1875 64.3125 C-87.19974609 63.33216797 -87.21199219 62.35183594 -87.22460938 61.34179688 C-87.24145587 52.95785827 -85.62383707 46.21431176 -82.5625 38.375 C-82.15128906 37.31023438 -81.74007812 36.24546875 -81.31640625 35.1484375 C-76.04354132 22.53737182 -66.00849385 11.48108847 -53.4375 5.6875 C-49.76967544 4.22037018 -46.04938625 2.90008683 -42.27734375 1.7265625 C-40.00680352 1.03264825 -40.00680352 1.03264825 -37.87890625 0.1484375 C-26.31136687 -4.14177641 -11.77258525 -2.96298775 0 0 Z " fill="#1E0B2D" transform="translate(288,22)"/>
<path d="M0 0 C0 0.66 0 1.32 0 2 C0.54527344 2.12503906 1.09054687 2.25007813 1.65234375 2.37890625 C4.34990976 3.0925718 6.93755976 3.99109297 9.5625 4.9375 C10.98755859 5.44603516 10.98755859 5.44603516 12.44140625 5.96484375 C15 7 15 7 18 9 C18 9.66 18 10.32 18 11 C18.53882813 11.22558594 19.07765625 11.45117188 19.6328125 11.68359375 C31.34731981 18.19809699 39.86210005 29.75389738 43.50488281 42.44433594 C45.58844196 51.43973625 45.58723083 60.62530893 45.6875 69.8125 C45.70480164 70.6108728 45.72210327 71.40924561 45.7399292 72.23181152 C46.01549212 87.56348754 42.24195056 98.21946045 32 110 C31.13761719 111.00740234 31.13761719 111.00740234 30.2578125 112.03515625 C29.23473468 113.22711534 28.20454225 114.41304446 27.1640625 115.58984375 C25.89904299 117.01482183 25.89904299 117.01482183 25 119 C27.64 119 30.28 119 33 119 C33.33 119.99 33.66 120.98 34 122 C33.01 122 32.02 122 31 122 C30.505 123.98 30.505 123.98 30 126 C30.86625 125.505 30.86625 125.505 31.75 125 C34 124 34 124 38 124 C39.59765625 125.7578125 39.59765625 125.7578125 41.0625 128.125 C41.57167969 128.94484375 42.08085937 129.7646875 42.60546875 130.609375 C47 138.14285714 47 138.14285714 47 142 C44.91073239 141.5522998 43.14019678 141.07510542 41.25 140.0625 C37.94760878 138.50303748 34.5543508 137.82934852 31 137 C31.15855469 137.70898438 31.31710937 138.41796875 31.48046875 139.1484375 C32.002501 142.01372727 32.23633854 144.71483048 32.3125 147.625 C32.36857422 149.03652344 32.36857422 149.03652344 32.42578125 150.4765625 C32 153 32 153 30.10546875 154.8359375 C28 156 28 156 26 156 C26 155.01 26 154.02 26 153 C25.01 153.33 24.02 153.66 23 154 C20.66700175 154.03954234 18.33291811 154.04401732 16 154 C15.505 151.525 15.505 151.525 15 149 C18.6678852 147.03810791 21.87248551 145.60698743 26 145 C26 144.67 26 144.34 26 144 C25.01257813 144.01160156 24.02515625 144.02320313 23.0078125 144.03515625 C21.08582031 144.04869141 21.08582031 144.04869141 19.125 144.0625 C17.84882813 144.07410156 16.57265625 144.08570313 15.2578125 144.09765625 C12 144 12 144 10 143 C9.375 140.9375 9.375 140.9375 9 139 C8.0925 139.103125 7.185 139.20625 6.25 139.3125 C3 139 3 139 0.6875 136.8125 C-0.96821413 134.05297646 -1.46987372 132.12302113 -2 129 C-2.680625 129.144375 -3.36125 129.28875 -4.0625 129.4375 C-15.67129075 131.66045993 -27.30216762 131.67111891 -39 130 C-39.11859375 130.60457031 -39.2371875 131.20914063 -39.359375 131.83203125 C-40.3513592 135.18905094 -42.36233972 136.78196749 -45 139 C-45.86625 139.165 -46.7325 139.33 -47.625 139.5 C-48.40875 139.665 -49.1925 139.83 -50 140 C-51.03013277 141.64821244 -52.03114628 143.31503702 -53 145 C-55.1875 145.8125 -55.1875 145.8125 -57 146 C-56.814375 146.969375 -56.62875 147.93875 -56.4375 148.9375 C-56.2209375 150.4534375 -56.2209375 150.4534375 -56 152 C-57 153 -57 153 -58.9609375 153.1328125 C-59.75757813 153.13023437 -60.55421875 153.12765625 -61.375 153.125 C-62.16648438 153.12757813 -62.95796875 153.13015625 -63.7734375 153.1328125 C-66 153 -66 153 -69 152 C-68.34 153.32 -67.68 154.64 -67 156 C-69.93752254 155.69611836 -70.84080893 155.19330344 -72.75 152.875 C-74.6535884 148.49674668 -74.7606927 145.06473734 -73.09765625 140.55078125 C-72.12004387 138.33462792 -71.09680013 136.15932525 -70 134 C-70.928125 134.61875 -70.928125 134.61875 -71.875 135.25 C-76.98292001 138.1104352 -82.4520363 140.15067877 -88 142 C-88 135.48950314 -85.07935106 131.31445844 -81.2109375 126.203125 C-79 124 -79 124 -76.9140625 123.296875 C-75 123.3125 -75 123.3125 -72 124 C-72 123.01 -72 122.02 -72 121 C-72.66 121 -73.32 121 -74 121 C-73.67 120.01 -73.34 119.02 -73 118 C-71.02 118 -69.04 118 -67 118 C-68.25674883 114.22975351 -70.1586611 112.77819804 -73 110 C-74.11874499 108.78408702 -75.22282058 107.55452797 -76.3125 106.3125 C-76.82425781 105.73113281 -77.33601562 105.14976563 -77.86328125 104.55078125 C-79 103 -79 103 -79 101 C-79.99 100.67 -80.98 100.34 -82 100 C-83.1328125 97.4453125 -83.1328125 97.4453125 -84.125 94.125 C-84.45757812 93.05507812 -84.79015625 91.98515625 -85.1328125 90.8828125 C-87.08533675 82.14042916 -87.18156147 73.23810769 -87.1875 64.3125 C-87.19974609 63.33216797 -87.21199219 62.35183594 -87.22460938 61.34179688 C-87.24145587 52.95785827 -85.62383707 46.21431176 -82.5625 38.375 C-82.15128906 37.31023438 -81.74007812 36.24546875 -81.31640625 35.1484375 C-76.04354132 22.53737182 -66.00849385 11.48108847 -53.4375 5.6875 C-49.76967544 4.22037018 -46.04938625 2.90008683 -42.27734375 1.7265625 C-40.00680352 1.03264825 -40.00680352 1.03264825 -37.87890625 0.1484375 C-26.31136687 -4.14177641 -11.77258525 -2.96298775 0 0 Z M-37 30 C-37 30.66 -37 31.32 -37 32 C-38.07314453 32.09474609 -38.07314453 32.09474609 -39.16796875 32.19140625 C-54.15104566 34.03279345 -66.55708348 42.54197072 -75.7890625 54.2734375 C-81.92129161 63.63315562 -82.30169815 74.13956322 -81 85 C-79.19973273 92.8861566 -76.03724907 99.50408481 -70 105 C-69.25878906 105.69222656 -68.51757812 106.38445312 -67.75390625 107.09765625 C-67.03074219 107.74605469 -66.30757812 108.39445312 -65.5625 109.0625 C-64.84191406 109.71347656 -64.12132812 110.36445313 -63.37890625 111.03515625 C-49.28547089 122.67554703 -29.73168399 125.47839922 -11.97363281 123.80957031 C5.0585826 121.76903595 18.14672374 115.32514236 30 103 C30.72445312 102.33097656 31.44890625 101.66195312 32.1953125 100.97265625 C35.32518537 97.55147486 36.44256966 93.30016166 38 89 C38.4125 88.05125 38.825 87.1025 39.25 86.125 C41.53419656 76.60751432 40.45383284 65.46311293 35.81640625 56.78515625 C27.05841753 44.25602225 14.23017083 36.66083127 0 32 C-1.0725 31.608125 -2.145 31.21625 -3.25 30.8125 C-9.45575864 28.9789804 -15.65050266 28.84291327 -22.0625 28.875 C-22.83916016 28.87113281 -23.61582031 28.86726563 -24.41601562 28.86328125 C-28.7222659 28.8705738 -32.75958423 29.14513218 -37 30 Z " fill="#E5D5F2" transform="translate(288,22)"/>
<path d="M0 0 C0.93423645 3.01031744 1.04449911 3.86650268 0 7 C-0.1529647 9.51054905 -0.25695178 11.99888525 -0.31640625 14.51171875 C-0.33718735 15.23994339 -0.35796844 15.96816803 -0.37937927 16.71846008 C-0.44468746 19.04137875 -0.50367237 21.36440906 -0.5625 23.6875 C-0.60570305 25.26368335 -0.64931792 26.83985548 -0.69335938 28.41601562 C-0.8003496 32.27722975 -0.90166961 36.13855603 -1 40 C-0.34 40 0.32 40 1 40 C1 36.37 1 32.74 1 29 C1.66 28.67 2.32 28.34 3 28 C3.01417969 28.93199219 3.02835938 29.86398438 3.04296875 30.82421875 C3.35530292 39.17282677 4.56609933 45.71455739 7.94140625 53.48828125 C9 56 9 56 9 58 C9.89138672 58.37898438 9.89138672 58.37898438 10.80078125 58.765625 C13.26245306 60.14730935 14.45242171 61.53938174 16.1875 63.75 C23.76717869 72.57434172 33.10619633 75.88916167 44 79 C44.86625 79.24878906 45.7325 79.49757813 46.625 79.75390625 C64.16170673 83.98996886 84.35538558 80.58334996 100.13232422 72.14648438 C105.42010286 68.90054863 109.72579587 64.45140994 114 60 C114.55945313 59.49597656 115.11890625 58.99195313 115.6953125 58.47265625 C117.40966657 56.53759193 118.14746862 54.59918189 119.0625 52.1875 C119.38347656 51.35605469 119.70445312 50.52460937 120.03515625 49.66796875 C120.35355469 48.78753906 120.67195313 47.90710938 121 47 C121.36738281 46.07574219 121.73476563 45.15148437 122.11328125 44.19921875 C123.21000058 40.24233273 123.22087598 36.70341656 123.125 32.625 C123.11597656 31.88894531 123.10695313 31.15289062 123.09765625 30.39453125 C123.07430144 28.5962112 123.03843836 26.79806089 123 25 C125.02350324 28.03525486 125.32124018 29.19426202 125.625 32.6875 C125.73714844 33.89986328 125.73714844 33.89986328 125.8515625 35.13671875 C125.90054688 35.75160156 125.94953125 36.36648437 126 37 C127.80394875 35.19605125 127.23705789 32.43322201 127.31640625 29.99609375 C127.35830078 28.78115234 127.40019531 27.56621094 127.44335938 26.31445312 C127.48267578 25.03505859 127.52199219 23.75566406 127.5625 22.4375 C127.62727539 20.51260742 127.62727539 20.51260742 127.69335938 18.54882812 C127.799848 15.36600147 127.90185962 12.18309326 128 9 C128.33 9 128.66 9 129 9 C129.15016219 14.03120355 129.25805184 19.06105742 129.32958984 24.09399414 C129.35945981 25.79995488 129.40017255 27.50576621 129.45263672 29.21118164 C129.9293688 45.12562016 126.68057955 55.71493877 116 68 C115.13761719 69.00740234 115.13761719 69.00740234 114.2578125 70.03515625 C113.23473468 71.22711534 112.20454225 72.41304446 111.1640625 73.58984375 C109.89904299 75.01482183 109.89904299 75.01482183 109 77 C111.64 77 114.28 77 117 77 C117.33 77.99 117.66 78.98 118 80 C117.01 80 116.02 80 115 80 C114.505 81.98 114.505 81.98 114 84 C114.86625 83.505 114.86625 83.505 115.75 83 C118 82 118 82 122 82 C123.59765625 83.7578125 123.59765625 83.7578125 125.0625 86.125 C125.57167969 86.94484375 126.08085937 87.7646875 126.60546875 88.609375 C131 96.14285714 131 96.14285714 131 100 C128.91073239 99.5522998 127.14019678 99.07510542 125.25 98.0625 C121.94760878 96.50303748 118.5543508 95.82934852 115 95 C115.15855469 95.70898438 115.31710937 96.41796875 115.48046875 97.1484375 C116.002501 100.01372727 116.23633854 102.71483048 116.3125 105.625 C116.34988281 106.56601563 116.38726562 107.50703125 116.42578125 108.4765625 C116 111 116 111 114.10546875 112.8359375 C112 114 112 114 110 114 C110 113.01 110 112.02 110 111 C108.515 111.495 108.515 111.495 107 112 C104.66700175 112.03954234 102.33291811 112.04401732 100 112 C99.67 110.35 99.34 108.7 99 107 C102.6678852 105.03810791 105.87248551 103.60698743 110 103 C110 102.67 110 102.34 110 102 C109.01257813 102.01160156 108.02515625 102.02320313 107.0078125 102.03515625 C105.72648437 102.04417969 104.44515625 102.05320312 103.125 102.0625 C101.84882813 102.07410156 100.57265625 102.08570313 99.2578125 102.09765625 C96 102 96 102 94 101 C93.375 98.9375 93.375 98.9375 93 97 C92.0925 97.103125 91.185 97.20625 90.25 97.3125 C87 97 87 97 84.6875 94.8125 C83.03178587 92.05297646 82.53012628 90.12302113 82 87 C81.319375 87.144375 80.63875 87.28875 79.9375 87.4375 C68.32870925 89.66045993 56.69783238 89.67111891 45 88 C44.88140625 88.60457031 44.7628125 89.20914063 44.640625 89.83203125 C43.6486408 93.18905094 41.63766028 94.78196749 39 97 C38.13375 97.165 37.2675 97.33 36.375 97.5 C35.59125 97.665 34.8075 97.83 34 98 C32.96986723 99.64821244 31.96885372 101.31503702 31 103 C28.8125 103.8125 28.8125 103.8125 27 104 C27.185625 104.969375 27.37125 105.93875 27.5625 106.9375 C27.706875 107.948125 27.85125 108.95875 28 110 C27 111 27 111 25.0390625 111.1328125 C24.24242187 111.13023437 23.44578125 111.12765625 22.625 111.125 C21.83351562 111.12757813 21.04203125 111.13015625 20.2265625 111.1328125 C18 111 18 111 15 110 C15.66 111.32 16.32 112.64 17 114 C14.06247746 113.69611836 13.15919107 113.19330344 11.25 110.875 C9.3464116 106.49674668 9.2393073 103.06473734 10.90234375 98.55078125 C11.87995613 96.33462792 12.90319987 94.15932525 14 92 C13.38125 92.4125 12.7625 92.825 12.125 93.25 C7.01707999 96.1104352 1.5479637 98.15067877 -4 100 C-4 93.48950314 -1.07935106 89.31445844 2.7890625 84.203125 C5 82 5 82 7.0859375 81.296875 C9 81.3125 9 81.3125 12 82 C12 81.01 12 80.02 12 79 C11.34 79 10.68 79 10 79 C10.33 78.01 10.66 77.02 11 76 C12.98 76 14.96 76 17 76 C15.74325117 72.22975351 13.8413389 70.77819804 11 68 C9.88125501 66.78408702 8.77717942 65.55452797 7.6875 64.3125 C7.17574219 63.73113281 6.66398438 63.14976563 6.13671875 62.55078125 C5 61 5 61 5 59 C4.01 58.67 3.02 58.34 2 58 C0.8671875 55.4453125 0.8671875 55.4453125 -0.125 52.125 C-0.45757812 51.05507812 -0.79015625 49.98515625 -1.1328125 48.8828125 C-3.08533675 40.14042916 -3.18156147 31.23810769 -3.1875 22.3125 C-3.19974609 21.33216797 -3.21199219 20.35183594 -3.22460938 19.34179688 C-3.23865863 12.34995258 -2.21403982 6.64211947 0 0 Z " fill="#D2C2DF" transform="translate(204,64)"/>
<path d="M0 0 C0.68191406 -0.01611328 1.36382812 -0.03222656 2.06640625 -0.04882812 C10.57163285 -0.05692834 16.83167609 3.92805876 23.125 9.3125 C28.99252399 15.34301077 31.37344169 21.98412321 31.625 30.3125 C31.42545849 36.49828679 30.38678635 41.06527847 27.125 46.3125 C26.68929687 47.02148438 26.25359375 47.73046875 25.8046875 48.4609375 C21.3865563 54.95534894 15.54563652 58.8353329 8.125 61.3125 C-1.6587535 62.35126889 -11.07724755 61.6211037 -19.15625 55.6171875 C-25.40887578 49.85450628 -30.48045356 41.79930766 -31.0078125 33.12890625 C-30.99371552 29.061928 -30.89877619 25.27963274 -29.875 21.3125 C-29.215 21.3125 -28.555 21.3125 -27.875 21.3125 C-27.813125 20.28125 -27.75125 19.25 -27.6875 18.1875 C-26.13103271 10.7643483 -21.19359583 7.56341135 -15.15625 3.609375 C-10.06535105 0.71523381 -5.82636586 -0.02722601 0 0 Z " fill="#200E2F" transform="translate(266.875,159.6875)"/>
<path d="M0 0 C0.99 0 1.98 0 3 0 C3.63309191 1.18320576 4.25596718 2.37187848 4.875 3.5625 C5.22304688 4.22378906 5.57109375 4.88507813 5.9296875 5.56640625 C9.61162236 13.93810484 10.8459091 23.8260613 8.1953125 32.69140625 C4.02025791 40.96953172 -3.41196251 46.82012526 -11.859375 50.30859375 C-22.27773555 53.67364816 -37.24598296 54.10452085 -47.109375 49.12109375 C-47.73328125 48.75113281 -48.3571875 48.38117188 -49 48 C-50.03125 47.443125 -51.0625 46.88625 -52.125 46.3125 C-57.71206813 41.81855389 -63.84791335 36.34455238 -65 29 C-65.30008603 24.95733164 -65.29226444 21.04299136 -65 17 C-64.95101562 16.25363281 -64.90203125 15.50726563 -64.8515625 14.73828125 C-64.4375 12.875 -64.4375 12.875 -62 10 C-59.04100633 9.33994565 -56.14145806 8.96034482 -53.12158203 8.70678711 C-47.18182389 8.18419647 -42.20721299 6.45261733 -36.70703125 4.12109375 C-34.45824526 3.18977834 -32.37292448 2.50403408 -30 2 C-30.28443303 5.46161049 -30.74136539 6.75064971 -33.28515625 9.203125 C-34.65994141 10.21632813 -34.65994141 10.21632813 -36.0625 11.25 C-37.71892511 12.4859301 -39.36784506 13.73219181 -41 15 C-41 15.33 -41 15.66 -41 16 C-27.46761087 16.97628459 -16.07257679 12.64331957 -5 5 C-3.21586 3.4105657 -1.63727997 1.74291093 0 0 Z " fill="#E4D4F1" transform="translate(295,86)"/>
<path d="M0 0 C1.03898437 0.56589844 2.07796875 1.13179687 3.1484375 1.71484375 C13.10558367 7.13983883 13.10558367 7.13983883 24.1796875 8.8671875 C26 9 26 9 28 11 C36.13170785 13.05644843 44.65701755 13.48865591 53 14 C53 14.33 53 14.66 53 15 C36.29157175 15.18451025 36.29157175 15.18451025 28 14 C27.88140625 14.60457031 27.7628125 15.20914063 27.640625 15.83203125 C26.6486408 19.18905094 24.63766028 20.78196749 22 23 C20.700625 23.2475 20.700625 23.2475 19.375 23.5 C18.199375 23.7475 18.199375 23.7475 17 24 C15.96986723 25.64821244 14.96885372 27.31503702 14 29 C11.8125 29.8125 11.8125 29.8125 10 30 C10.185625 30.969375 10.37125 31.93875 10.5625 32.9375 C10.706875 33.948125 10.85125 34.95875 11 36 C10 37 10 37 8.0390625 37.1328125 C7.24242187 37.13023437 6.44578125 37.12765625 5.625 37.125 C4.83351562 37.12757813 4.04203125 37.13015625 3.2265625 37.1328125 C1 37 1 37 -2 36 C-1.34 37.32 -0.68 38.64 0 40 C-2.93752254 39.69611836 -3.84080893 39.19330344 -5.75 36.875 C-7.6535884 32.49674668 -7.7606927 29.06473734 -6.09765625 24.55078125 C-5.12004387 22.33462792 -4.09680013 20.15932525 -3 18 C-3.61875 18.4125 -4.2375 18.825 -4.875 19.25 C-9.98292001 22.1104352 -15.4520363 24.15067877 -21 26 C-21 19.48950314 -18.07935106 15.31445844 -14.2109375 10.203125 C-12 8 -12 8 -9.9140625 7.296875 C-8 7.3125 -8 7.3125 -5 8 C-5 7.01 -5 6.02 -5 5 C-5.66 5 -6.32 5 -7 5 C-6.67 4.01 -6.34 3.02 -6 2 C-4.02 2 -2.04 2 0 2 C0 1.34 0 0.68 0 0 Z " fill="#352343" transform="translate(221,138)"/>
<path d="M0 0 C0.66 0.33 1.32 0.66 2 1 C1.67 1.66 1.34 2.32 1 3 C3.64 3 6.28 3 9 3 C9.495 4.485 9.495 4.485 10 6 C9.01 6 8.02 6 7 6 C6.67 7.32 6.34 8.64 6 10 C6.5775 9.67 7.155 9.34 7.75 9 C10 8 10 8 14 8 C15.59765625 9.7578125 15.59765625 9.7578125 17.0625 12.125 C17.57167969 12.94484375 18.08085937 13.7646875 18.60546875 14.609375 C23 22.14285714 23 22.14285714 23 26 C20.91073239 25.5522998 19.14019678 25.07510542 17.25 24.0625 C13.94760878 22.50303748 10.5543508 21.82934852 7 21 C7.15855469 21.70898438 7.31710937 22.41796875 7.48046875 23.1484375 C8.002501 26.01372727 8.23633854 28.71483048 8.3125 31.625 C8.36857422 33.03652344 8.36857422 33.03652344 8.42578125 34.4765625 C8 37 8 37 6.10546875 38.8359375 C4 40 4 40 2 40 C2 39.01 2 38.02 2 37 C0.515 37.495 0.515 37.495 -1 38 C-3.33299825 38.03954234 -5.66708189 38.04401732 -8 38 C-8.495 35.525 -8.495 35.525 -9 33 C-5.3321148 31.03810791 -2.12751449 29.60698743 2 29 C2 28.67 2 28.34 2 28 C0.51886719 28.01740234 0.51886719 28.01740234 -0.9921875 28.03515625 C-2.27351563 28.04417969 -3.55484375 28.05320313 -4.875 28.0625 C-6.15117187 28.07410156 -7.42734375 28.08570313 -8.7421875 28.09765625 C-12 28 -12 28 -14 27 C-14.625 24.9375 -14.625 24.9375 -15 23 C-15.9075 23.103125 -16.815 23.20625 -17.75 23.3125 C-21 23 -21 23 -23.3125 20.8125 C-24.95018857 18.08301905 -25.64161802 16.13584232 -26 13 C-27.32 12.67 -28.64 12.34 -30 12 C-26.80583499 9.55114016 -24.47621492 8.87250508 -20.5625 8.75 C-13.99451797 8.31345739 -4.75067191 4.75067191 0 0 Z " fill="#332142" transform="translate(312,138)"/>
<path d="M0 0 C1.35678822 1.3094584 2.69007596 2.64366133 4 4 C6.5932359 6.00368304 9.21674101 7.95903474 11.85546875 9.90234375 C14.29553321 12.28907347 14.70322152 13.65396809 15 17 C13.68 17 12.36 17 11 17 C10.67 17.66 10.34 18.32 10 19 C9.35933594 18.46890625 8.71867187 17.9378125 8.05859375 17.390625 C-0.26212684 10.59516317 -7.82571558 6.47376934 -18 3 C-19.0725 2.608125 -20.145 2.21625 -21.25 1.8125 C-28.56613096 -0.34908415 -35.87207475 -0.12086827 -43.4375 -0.0625 C-44.55060547 -0.05798828 -45.66371094 -0.05347656 -46.81054688 -0.04882812 C-49.54042101 -0.03711193 -52.27018174 -0.02070699 -55 0 C-55 0.66 -55 1.32 -55 2 C-56.32451172 2.32871094 -56.32451172 2.32871094 -57.67578125 2.6640625 C-70.17408327 5.96651395 -79.62924978 10.88376399 -89 20 C-89.33 19.01 -89.66 18.02 -90 17 C-90.66 17 -91.32 17 -92 17 C-91.22201276 10.76529667 -87.59166806 7.95222435 -83 4 C-75.23678647 -2 -75.23678647 -2 -70 -2 C-70 -2.66 -70 -3.32 -70 -4 C-67.95990245 -4.65077296 -65.91784331 -5.29539824 -63.875 -5.9375 C-62.73804688 -6.29714844 -61.60109375 -6.65679687 -60.4296875 -7.02734375 C-41.08609044 -12.51317025 -17.15903612 -10.7145737 0 0 Z " fill="#D1C0DE" transform="translate(306,52)"/>
<path d="M0 0 C1.37478516 0.01740234 1.37478516 0.01740234 2.77734375 0.03515625 C3.69644531 0.04417969 4.61554688 0.05320313 5.5625 0.0625 C6.27277344 0.07410156 6.98304688 0.08570313 7.71484375 0.09765625 C8.05257812 1.00128906 8.3903125 1.90492188 8.73828125 2.8359375 C9.18429688 4.01542969 9.6303125 5.19492188 10.08984375 6.41015625 C10.53070313 7.58191406 10.9715625 8.75367188 11.42578125 9.9609375 C12.62974023 13.18319218 12.62974023 13.18319218 14.71484375 16.09765625 C14.83984375 19.28515625 14.83984375 19.28515625 14.71484375 22.09765625 C15.70484375 21.76765625 16.69484375 21.43765625 17.71484375 21.09765625 C18.88622509 17.66450488 18.88622509 17.66450488 19.71484375 14.09765625 C20.04484375 13.43765625 20.37484375 12.77765625 20.71484375 12.09765625 C21.37484375 12.09765625 22.03484375 12.09765625 22.71484375 12.09765625 C22.84761719 11.47117188 22.98039062 10.8446875 23.1171875 10.19921875 C23.29378906 9.38195312 23.47039062 8.5646875 23.65234375 7.72265625 C23.91337891 6.50449219 23.91337891 6.50449219 24.1796875 5.26171875 C24.71484375 3.09765625 24.71484375 3.09765625 25.71484375 1.09765625 C29.01484375 1.09765625 32.31484375 1.09765625 35.71484375 1.09765625 C35.71484375 11.32765625 35.71484375 21.55765625 35.71484375 32.09765625 C33.40484375 32.09765625 31.09484375 32.09765625 28.71484375 32.09765625 C28.71484375 27.14765625 28.71484375 22.19765625 28.71484375 17.09765625 C25.53034475 18.68990575 25.16641867 21.95859769 24.08984375 25.16015625 C23.86039063 25.82337891 23.6309375 26.48660156 23.39453125 27.16992188 C22.82808599 28.81025294 22.27061452 30.45367782 21.71484375 32.09765625 C18.41484375 32.09765625 15.11484375 32.09765625 11.71484375 32.09765625 C7.83984375 24.47265625 7.83984375 24.47265625 6.71484375 21.09765625 C6.38484375 25.05765625 6.05484375 29.01765625 5.71484375 33.09765625 C-0.4375 33.1953125 -0.4375 33.1953125 -2.28515625 33.09765625 C-4.19365573 31.18915677 -3.41575258 27.78286851 -3.41796875 25.25390625 C-3.41892548 24.56961548 -3.4198822 23.88532471 -3.42086792 23.18029785 C-3.42154955 21.73103748 -3.41969648 20.28177407 -3.41552734 18.83251953 C-3.41017877 16.60702697 -3.41547285 14.38173624 -3.421875 12.15625 C-3.42121422 10.75130164 -3.41993305 9.3463534 -3.41796875 7.94140625 C-3.41684082 6.65427734 -3.41571289 5.36714844 -3.41455078 4.04101562 C-3.24299422 0.1385895 -3.24299422 0.1385895 0 0 Z " fill="#DCC9ED" transform="translate(196.28515625,223.90234375)"/>
<path d="M0 0 C2.805 -0.0825 5.61 -0.165 8.5 -0.25 C9.8003418 -0.30462402 9.8003418 -0.30462402 11.12695312 -0.36035156 C16.92424921 -0.44181855 21.14394717 0.80089125 26 4 C29.90226193 7.90226193 30.13843859 12.38886802 30.1875 17.6875 C30.16564779 20.84732955 30.00647993 22.98056021 29 26 C28.34 26 27.68 26 27 26 C26.9071875 27.175625 26.9071875 27.175625 26.8125 28.375 C26.544375 29.24125 26.27625 30.1075 26 31 C22.5694452 32.76947169 19.74557857 33.24227704 15.91796875 33.1953125 C14.65762817 33.18781982 14.65762817 33.18781982 13.37182617 33.18017578 C12.32099854 33.16196777 11.2701709 33.14375977 10.1875 33.125 C6.825625 33.08375 3.46375 33.0425 0 33 C0 22.11 0 11.22 0 0 Z " fill="#D2BFE3" transform="translate(376,224)"/>
<path d="M0 0 C3.17625 -0.0825 6.3525 -0.165 9.625 -0.25 C10.6145166 -0.28641602 11.6040332 -0.32283203 12.62353516 -0.36035156 C18.43723189 -0.43321374 21.55357802 0.1877745 26 4 C30.29639448 8.88900061 30.39731844 13.68121386 30.3515625 19.97265625 C29.80792111 24.65401264 28.27433511 26.65124819 25 30 C22.828125 30.67578125 22.828125 30.67578125 21 31 C21 31.66 21 32.32 21 33 C14.07 33 7.14 33 0 33 C0 22.11 0 11.22 0 0 Z " fill="#DFCBF0" transform="translate(253,283)"/>
<path d="M0 0 C0.68191406 -0.01611328 1.36382812 -0.03222656 2.06640625 -0.04882812 C10.57163285 -0.05692834 16.83167609 3.92805876 23.125 9.3125 C28.99252399 15.34301077 31.37344169 21.98412321 31.625 30.3125 C31.42545849 36.49828679 30.38678635 41.06527847 27.125 46.3125 C26.68929687 47.02148438 26.25359375 47.73046875 25.8046875 48.4609375 C21.3865563 54.95534894 15.54563652 58.8353329 8.125 61.3125 C-1.6587535 62.35126889 -11.07724755 61.6211037 -19.15625 55.6171875 C-25.40887578 49.85450628 -30.48045356 41.79930766 -31.0078125 33.12890625 C-30.99371552 29.061928 -30.89877619 25.27963274 -29.875 21.3125 C-29.215 21.3125 -28.555 21.3125 -27.875 21.3125 C-27.813125 20.28125 -27.75125 19.25 -27.6875 18.1875 C-26.13103271 10.7643483 -21.19359583 7.56341135 -15.15625 3.609375 C-10.06535105 0.71523381 -5.82636586 -0.02722601 0 0 Z M-7.5 5.375 C-13.30644745 6.98790207 -17.66658132 11.10408132 -21.875 15.3125 C-22.90985877 17.63058364 -23.9105414 19.96425298 -24.875 22.3125 C-25.205 22.9725 -25.535 23.6325 -25.875 24.3125 C-26.65263093 34.03288657 -25.79201231 41.0718436 -19.5 48.625 C-13.75416637 54.76751252 -7.52558636 57.24003532 0.875 57.8125 C8.12553721 57.6359268 14.01207708 54.12417231 19.3046875 49.34375 C24.80999109 43.40441833 26.58543046 38.08199014 26.3671875 30.03125 C25.68135083 22.33218026 24.11368654 15.95511214 18.1328125 10.75 C9.6718604 4.69235336 2.49454135 5.20268032 -7.5 5.375 Z " fill="#C6B6D3" transform="translate(266.875,159.6875)"/>
<path d="M0 0 C3.17625 -0.0825 6.3525 -0.165 9.625 -0.25 C10.6145166 -0.28641602 11.6040332 -0.32283203 12.62353516 -0.36035156 C18.38972311 -0.43261832 21.65687128 0.0925897 26 4 C27.34617235 8.03851704 27.58200916 11.77670275 27 16 C25.71937515 17.7074998 24.3927289 19.38263741 23 21 C23.10576756 25.12493493 25.07905427 28.40866667 27 32 C22.35525026 32.32405231 19.70894272 31.88473323 16 29 C14.26476072 26.35582586 14 25.21534057 14 22 C12.02 22 10.04 22 8 22 C8 25.63 8 29.26 8 33 C5.36 33 2.72 33 0 33 C0 22.11 0 11.22 0 0 Z " fill="#DFCBF0" transform="translate(465,224)"/>
<path d="M0 0 C10 0 10 0 12.875 2.8515625 C13.62079694 4.08752986 14.32883916 5.34696576 15 6.625 C15.36738281 7.24246094 15.73476563 7.85992187 16.11328125 8.49609375 C17.81335527 11.43258524 19.05372601 14.16229732 20.125 17.3984375 C20.7096395 20.14865093 20.7096395 20.14865093 23 21 C23 14.4 23 7.8 23 1 C25.64 1 28.28 1 31 1 C31 11.23 31 21.46 31 32 C27.37 32 23.74 32 20 32 C17.48576391 29.43338399 16.4204024 28.10070822 15 25 C14.443125 23.80375 13.88625 22.6075 13.3125 21.375 C12.879375 20.26125 12.44625 19.1475 12 18 C11.608125 17.030625 11.21625 16.06125 10.8125 15.0625 C10.4103125 14.0415625 10.4103125 14.0415625 10 13 C9.34 13 8.68 13 8 13 C8 19.6 8 26.2 8 33 C5.36 33 2.72 33 0 33 C0 22.11 0 11.22 0 0 Z " fill="#D9C5EA" transform="translate(332,224)"/>
<path d="M0 0 C1.11375 -0.02320313 1.11375 -0.02320313 2.25 -0.046875 C7.43508783 -0.01023127 10.59595505 0.97145752 14.625 4.5 C15.5 8.25 15.5 8.25 15.625 11.5 C12.985 11.5 10.345 11.5 7.625 11.5 C6.965 10.18 6.305 8.86 5.625 7.5 C2.655 7.5 -0.315 7.5 -3.375 7.5 C-3.375 9.15 -3.375 10.8 -3.375 12.5 C-1.83779297 12.52126953 -1.83779297 12.52126953 -0.26953125 12.54296875 C1.09118971 12.58989016 2.45186541 12.63813744 3.8125 12.6875 C4.48603516 12.69330078 5.15957031 12.69910156 5.85351562 12.70507812 C9.71551288 12.87462922 11.52052051 13.41809579 14.58984375 15.82421875 C17.21415834 19.27461318 17.09627602 21.25851582 16.625 25.5 C15.33690531 29.36428407 14.0745208 30.35312719 10.625 32.5 C7.77479691 33.0916199 5.02782393 33.10511486 2.125 33.0625 C1.00544922 33.09827148 1.00544922 33.09827148 -0.13671875 33.13476562 C-4.33125707 33.12362968 -5.95678633 32.82328839 -9.38671875 30.171875 C-11.74656613 27.0006852 -11.82427551 25.36376936 -11.375 21.5 C-9.065 21.5 -6.755 21.5 -4.375 21.5 C-4.375 22.49 -4.375 23.48 -4.375 24.5 C-0.085 24.83 4.205 25.16 8.625 25.5 C8.625 23.52 8.625 21.54 8.625 19.5 C7.76777344 19.52320313 6.91054688 19.54640625 6.02734375 19.5703125 C-0.16112661 19.66798847 -5.56681207 19.74407261 -11.375 17.5 C-13.17292975 15.70207025 -12.63170277 13.11614796 -12.6875 10.6875 C-12.72488281 9.62917969 -12.76226562 8.57085937 -12.80078125 7.48046875 C-12.375 4.5 -12.375 4.5 -10.87890625 2.14453125 C-7.34630533 -0.17563254 -4.08463258 -0.08421923 0 0 Z " fill="#D6C2E7" transform="translate(258.375,224.5)"/>
<path d="M0 0 C2.2265625 1.6640625 2.2265625 1.6640625 4.2265625 4.6640625 C4.3515625 7.3515625 4.3515625 7.3515625 4.2265625 9.6640625 C1.5865625 9.6640625 -1.0534375 9.6640625 -3.7734375 9.6640625 C-4.4334375 8.3440625 -5.0934375 7.0240625 -5.7734375 5.6640625 C-8.7434375 5.6640625 -11.7134375 5.6640625 -14.7734375 5.6640625 C-14.4434375 7.3140625 -14.1134375 8.9640625 -13.7734375 10.6640625 C-12.73703125 10.67824219 -11.700625 10.69242188 -10.6328125 10.70703125 C-9.26297693 10.75394343 -7.89318663 10.80219077 -6.5234375 10.8515625 C-5.50056641 10.86026367 -5.50056641 10.86026367 -4.45703125 10.86914062 C-0.71903961 11.03245094 0.93836194 11.39095816 3.6875 13.99609375 C6.14715084 18.25990472 5.71593021 21.82893359 4.4765625 26.4765625 C2.91541777 29.20856577 2.1814879 29.59596049 -0.7734375 30.6640625 C-3.65345067 30.90784314 -6.39496748 31.03417545 -9.2734375 31.0390625 C-10.03269531 31.06355469 -10.79195312 31.08804688 -11.57421875 31.11328125 C-15.1469013 31.13205191 -17.32134963 30.98962263 -20.2578125 28.875 C-22.30402784 25.890057 -22.49941747 23.22632293 -22.7734375 19.6640625 C-20.1334375 19.6640625 -17.4934375 19.6640625 -14.7734375 19.6640625 C-14.4434375 21.3140625 -14.1134375 22.9640625 -13.7734375 24.6640625 C-10.1434375 24.3340625 -6.5134375 24.0040625 -2.7734375 23.6640625 C-3.2684375 21.1890625 -3.2684375 21.1890625 -3.7734375 18.6640625 C-4.80984375 18.63828125 -5.84625 18.6125 -6.9140625 18.5859375 C-8.28389551 18.52964299 -9.65368555 18.47229595 -11.0234375 18.4140625 C-12.04630859 18.39279297 -12.04630859 18.39279297 -13.08984375 18.37109375 C-16.37271123 18.21173125 -18.49372814 17.85171561 -21.2421875 16.0078125 C-23.23444574 12.95843765 -23.18046468 11.02568767 -23.0234375 7.4140625 C-22.98734375 6.33640625 -22.95125 5.25875 -22.9140625 4.1484375 C-22.86765625 3.32859375 -22.82125 2.50875 -22.7734375 1.6640625 C-16.02977241 -2.0998436 -7.13791375 -3.43826268 0 0 Z " fill="#D7C3E8" transform="translate(46.7734375,226.3359375)"/>
<path d="M0 0 C1.23556641 0.01740234 1.23556641 0.01740234 2.49609375 0.03515625 C3.32238281 0.04417969 4.14867187 0.05320312 5 0.0625 C5.63808594 0.07410156 6.27617187 0.08570313 6.93359375 0.09765625 C7.34222656 1.19464844 7.75085938 2.29164063 8.171875 3.421875 C9.41758586 6.74596765 10.690257 10.05860067 11.9765625 13.3671875 C12.32783203 14.27533203 12.67910156 15.18347656 13.04101562 16.11914062 C13.76916924 18.00075276 14.50102231 19.88093692 15.23632812 21.75976562 C15.58373047 22.66146484 15.93113281 23.56316406 16.2890625 24.4921875 C16.76315552 25.71192261 16.76315552 25.71192261 17.24682617 26.95629883 C17.93359375 29.09765625 17.93359375 29.09765625 17.93359375 32.09765625 C15.29359375 32.09765625 12.65359375 32.09765625 9.93359375 32.09765625 C9.27359375 30.77765625 8.61359375 29.45765625 7.93359375 28.09765625 C4.30359375 28.09765625 0.67359375 28.09765625 -3.06640625 28.09765625 C-3.72640625 29.41765625 -4.38640625 30.73765625 -5.06640625 32.09765625 C-8.03640625 32.09765625 -11.00640625 32.09765625 -14.06640625 32.09765625 C-13.52300833 27.53311374 -12.27176804 24.12483865 -10.06640625 20.09765625 C-9.40640625 20.09765625 -8.74640625 20.09765625 -8.06640625 20.09765625 C-7.95683594 19.31261719 -7.84726562 18.52757812 -7.734375 17.71875 C-5.09660762 0.24086047 -5.09660762 0.24086047 0 0 Z " fill="#D7C3E8" transform="translate(310.06640625,282.90234375)"/>
<path d="M0 0 C1.21816406 0.03480469 1.21816406 0.03480469 2.4609375 0.0703125 C3.68683594 0.09738281 3.68683594 0.09738281 4.9375 0.125 C5.87722656 0.15980469 5.87722656 0.15980469 6.8359375 0.1953125 C10.23970662 5.35965185 11.67595555 10.10535046 13.04296875 16.1171875 C14.03396071 19.96399372 15.47400584 23.50461444 17.06640625 27.13671875 C17.8359375 29.1953125 17.8359375 29.1953125 17.8359375 32.1953125 C15.1959375 32.1953125 12.5559375 32.1953125 9.8359375 32.1953125 C9.63226563 31.55078125 9.42859375 30.90625 9.21875 30.2421875 C7.969144 27.88377378 7.969144 27.88377378 5.015625 27.5859375 C3.92507812 27.53953125 2.83453125 27.493125 1.7109375 27.4453125 C0.61523438 27.38859375 -0.48046875 27.331875 -1.609375 27.2734375 C-2.45242187 27.24765625 -3.29546875 27.221875 -4.1640625 27.1953125 C-4.4940625 28.8453125 -4.8240625 30.4953125 -5.1640625 32.1953125 C-7.8040625 32.1953125 -10.4440625 32.1953125 -13.1640625 32.1953125 C-10.44723932 22.79240676 -10.44723932 22.79240676 -8.6640625 18.3203125 C-6.93741742 13.90877951 -5.94421302 9.34965662 -4.91015625 4.734375 C-4.00128842 1.6413693 -3.33308438 0.30081989 0 0 Z " fill="#D8C4E9" transform="translate(221.1640625,282.8046875)"/>
<path d="M0 0 C6.15234375 -0.09765625 6.15234375 -0.09765625 8 0 C9 1 9 1 9.11352539 3.31665039 C9.10828857 4.31688232 9.10305176 5.31711426 9.09765625 6.34765625 C9.09443359 7.42724609 9.09121094 8.50683594 9.08789062 9.61914062 C9.07951172 10.75544922 9.07113281 11.89175781 9.0625 13.0625 C9.05798828 14.20267578 9.05347656 15.34285156 9.04882812 16.51757812 C9.03699747 19.34510351 9.0205141 22.1725264 9 25 C10.43640171 25.19573608 11.87419504 25.38127816 13.3125 25.5625 C14.11300781 25.66691406 14.91351563 25.77132812 15.73828125 25.87890625 C18.16817116 26.14755178 18.16817116 26.14755178 21 25 C21.95168683 22.14493951 22.1900946 20.09062718 22.31640625 17.11328125 C22.35830078 16.17548828 22.40019531 15.23769531 22.44335938 14.27148438 C22.48267578 13.29501953 22.52199219 12.31855469 22.5625 11.3125 C22.60568359 10.32443359 22.64886719 9.33636719 22.69335938 8.31835938 C22.79941654 5.87904454 22.90147714 3.43962887 23 1 C25.64 1 28.28 1 31 1 C31.05811773 4.74993479 31.09363593 8.49975352 31.125 12.25 C31.14175781 13.31347656 31.15851563 14.37695312 31.17578125 15.47265625 C31.18222656 16.49746094 31.18867188 17.52226562 31.1953125 18.578125 C31.20578613 19.52075195 31.21625977 20.46337891 31.22705078 21.43457031 C30.85668323 25.61932538 29.32714966 27.63090807 26.5625 30.75 C22.21651142 34.21187816 17.26728895 33.57419574 12 33 C7.25428427 32.2759294 4.03498634 30.85209805 1 27 C-0.0394775 23.8815675 -0.11494838 21.72524414 -0.09765625 18.45703125 C-0.09443359 17.38388672 -0.09121094 16.31074219 -0.08789062 15.20507812 C-0.07951172 14.08552734 -0.07113281 12.96597656 -0.0625 11.8125 C-0.05798828 10.68134766 -0.05347656 9.55019531 -0.04882812 8.38476562 C-0.03703498 5.58979073 -0.0205765 2.7949218 0 0 Z " fill="#D9C5EA" transform="translate(288,224)"/>
<path d="M0 0 C2.97 0 5.94 0 9 0 C9.36351562 1.01707031 9.36351562 1.01707031 9.734375 2.0546875 C11.42918647 6.76104859 13.157758 11.436698 15.0625 16.0625 C17.04695747 20.94912847 18.574786 25.9253744 20 31 C17.36 31 14.72 31 12 31 C11.505 28.525 11.505 28.525 11 26 C6.71 26 2.42 26 -2 26 C-2.33 27.65 -2.66 29.3 -3 31 C-4 32 -4 32 -5.84765625 32.09765625 C-7.8984375 32.06510417 -9.94921875 32.03255208 -12 32 C-12.50083888 27.86807926 -11.35328676 25.68297433 -9.2109375 22.21875 C-7.10607051 18.36209048 -5.70729681 14.22195629 -4.171875 10.11328125 C-2.88314636 6.68955884 -1.47811438 3.34520624 0 0 Z " fill="#DAC6EB" transform="translate(160,225)"/>
<path d="M0 0 C2.97 0 5.94 0 9 0 C9.26216309 0.6705542 9.52432617 1.3411084 9.79443359 2.03198242 C10.98775574 5.08389986 12.18137496 8.13570102 13.375 11.1875 C13.7875 12.24259766 14.2 13.29769531 14.625 14.38476562 C15.02460938 15.40634766 15.42421875 16.42792969 15.8359375 17.48046875 C16.38580322 18.88655396 16.38580322 18.88655396 16.94677734 20.32104492 C17.65022274 22.11031389 18.37997088 23.88945871 19.13525391 25.6574707 C20 28 20 28 20 31 C17.36 31 14.72 31 12 31 C11.505 28.525 11.505 28.525 11 26 C7.04 26 3.08 26 -1 26 C-1.33 27.65 -1.66 29.3 -2 31 C-4.64 31 -7.28 31 -10 31 C-9.83608762 24.13058117 -8.36398257 18.91632058 -5.34375 12.76171875 C-3.32094321 8.60438038 -1.6725314 4.30746914 0 0 Z " fill="#D6C2E7" transform="translate(431,225)"/>
<path d="M0 0 C2.92277645 -0.29227765 5.15293118 -0.5072364 8 0 C12.16684236 4.27649611 13.00742959 9.31622841 14 15 C14.20625 16.010625 14.4125 17.02125 14.625 18.0625 C14.74875 18.701875 14.8725 19.34125 15 20 C15.99 20 16.98 20 18 20 C18.12375 19.32453125 18.2475 18.6490625 18.375 17.953125 C19.10509559 14.50342332 20.03507417 11.14143049 21 7.75 C21.5259375 5.88601563 21.5259375 5.88601563 22.0625 3.984375 C23 1 23 1 24 0 C26.67058851 -0.14115161 29.32432238 -0.04247107 32 0 C31.50748575 7.3787589 29.11392461 13.64704142 26.4375 20.5 C26.01275391 21.60859375 25.58800781 22.7171875 25.15039062 23.859375 C24.10820124 26.57609339 23.0579205 29.28937756 22 32 C18.7 32 15.4 32 12 32 C8.87012085 26.05806606 6.47547523 20.10226713 4.3125 13.75 C4.00505859 12.86570312 3.69761719 11.98140625 3.38085938 11.0703125 C2.11434881 7.40103463 0.89455656 3.77999784 0 0 Z " fill="#CFBBE0" transform="translate(333,283)"/>
<path d="M0 0 C2.31 0 4.62 0 7 0 C7.33 3.96 7.66 7.92 8 12 C12.62 12 17.24 12 22 12 C22.33 8.04 22.66 4.08 23 0 C24.98 0 26.96 0 29 0 C29 10.23 29 20.46 29 31 C27.02 31 25.04 31 23 31 C23 27.04 23 23.08 23 19 C17.72 19 12.44 19 7 19 C7 22.96 7 26.92 7 31 C4.69 31 2.38 31 0 31 C0 20.77 0 10.54 0 0 Z " fill="#E1CDF1" transform="translate(66,225)"/>
<path d="M0 0 C1.35810269 1.30809504 2.6913638 2.64241875 4 4 C6.59143209 6.03811556 9.21754851 8.02252538 11.85546875 10 C14.07464842 12.06961747 14.66305505 13.04016988 15 16 C11.43322251 15.40952677 9.58466641 14.04264332 6.9375 11.625 C5.93009766 10.71621094 5.93009766 10.71621094 4.90234375 9.7890625 C3 8 3 8 1.66015625 6.4609375 C-0.79279574 4.30233975 -3.50086193 3.27397016 -6.5 2 C-7.6446875 1.505 -8.789375 1.01 -9.96875 0.5 C-19.92181727 -3.34458138 -29.07880232 -4.5813252 -39.75 -4.5625 C-40.41064453 -4.56334595 -41.07128906 -4.56419189 -41.75195312 -4.56506348 C-54.12963188 -4.53129799 -62.88468939 -2.74354041 -73.22265625 4.1484375 C-76 6 -76 6 -78.4375 6.875 C-82.59614084 8.70074476 -86.93735227 11.87470454 -89 16 C-89.99 16 -90.98 16 -92 16 C-90.99814214 9.73838836 -85.38154906 5.84453309 -80.609375 2.1484375 C-74.67180095 -2 -74.67180095 -2 -70 -2 C-70 -2.66 -70 -3.32 -70 -4 C-67.95990245 -4.65077296 -65.91784331 -5.29539824 -63.875 -5.9375 C-62.73804688 -6.29714844 -61.60109375 -6.65679687 -60.4296875 -7.02734375 C-41.08609044 -12.51317025 -17.15903612 -10.7145737 0 0 Z " fill="#544263" transform="translate(306,52)"/>
<path d="M0 0 C2.97 0 5.94 0 9 0 C9.36351562 0.95712891 9.36351562 0.95712891 9.734375 1.93359375 C10.06953125 2.75988281 10.4046875 3.58617187 10.75 4.4375 C11.07484375 5.26121094 11.3996875 6.08492188 11.734375 6.93359375 C12.81931552 9.1849879 12.81931552 9.1849879 15.140625 9.78515625 C16.06101563 9.89150391 16.06101563 9.89150391 17 10 C17.32871094 9.278125 17.65742188 8.55625 17.99609375 7.8125 C19.478507 4.91998635 20.86560347 2.45778995 23 0 C26.15600623 -0.87239197 28.81176617 -0.63764677 32 0 C32 0.99 32 1.98 32 3 C30.66666667 4.33333333 29.33333333 5.66666667 28 7 C23.63722277 13.19905063 20.88042691 18.64685847 20.375 26.3125 C20.30023438 27.38113281 20.22546875 28.44976562 20.1484375 29.55078125 C20.09945312 30.35902344 20.05046875 31.16726563 20 32 C17.36 32 14.72 32 12 32 C12 27.71 12 23.42 12 19 C11.01 18.67 10.02 18.34 9 18 C9 16.68 9 15.36 9 14 C8.01 13.67 7.02 13.34 6 13 C4 10 4 10 4 6 C3.01 5.67 2.02 5.34 1 5 C0.67 3.35 0.34 1.7 0 0 Z " fill="#CEBADE" transform="translate(169,283)"/>
<path d="M0 0 C2.97 0 5.94 0 9 0 C9.61875 1.6396875 9.61875 1.6396875 10.25 3.3125 C11.61241064 6.5022197 12.87941072 8.28870911 16 10 C16.66 10 17.32 10 18 10 C18.103125 9.278125 18.20625 8.55625 18.3125 7.8125 C19.12614499 4.48395229 19.66620187 2.5525917 22 0 C25.04093407 -0.43210431 27.9494978 -0.28778323 31 0 C29.08162729 3.99353549 26.7650542 7.70002483 24.4375 11.46484375 C21.68760794 16.31451752 20.71317578 20.2325996 20.375 25.8125 C20.30023438 26.97394531 20.22546875 28.13539063 20.1484375 29.33203125 C20.09945312 30.21246094 20.05046875 31.09289062 20 32 C17.03 32 14.06 32 11 32 C10.98582031 31.17757813 10.97164062 30.35515625 10.95703125 29.5078125 C10.46778277 18.05675358 6.60157118 11.05358333 0 2 C0 1.34 0 0.68 0 0 Z " fill="#D0BCE0" transform="translate(110,225)"/>
<path d="M0 0 C0.33 0 0.66 0 1 0 C1.03738281 0.99 1.07476562 1.98 1.11328125 3 C1.61385802 13.8885791 2.78982976 22.14497707 11 30 C16.66410536 34.21177065 23.35015778 35.61367374 30.3203125 35.43359375 C38.38118539 34.12928341 45.26356021 28.86648443 50.40625 22.72265625 C53.41801388 17.57755962 54.20230392 11.84146194 55 6 C55.66 6 56.32 6 57 6 C57.61095211 14.78413362 57.2278223 20.78712054 52 28 C51.401875 28.9075 50.80375 29.815 50.1875 30.75 C45.32945185 35.74684952 38.8175483 39.59468006 31.8359375 40.3359375 C21.56077592 40.45190998 13.17810939 39.41222382 5.5 32.125 C-0.89848755 25.07227037 -2.14187061 18.63002207 -2.1875 9.3125 C-2.19974609 8.63638672 -2.21199219 7.96027344 -2.22460938 7.26367188 C-2.2298516 5.50752573 -2.12232123 3.75188878 -2 2 C-1.34 1.34 -0.68 0.68 0 0 Z " fill="#DCCBE9" transform="translate(240,181)"/>
<path d="M0 0 C0.66 0.33 1.32 0.66 2 1 C1.06725891 2.12894876 0.12859878 3.25300876 -0.8125 4.375 C-1.33457031 5.00148438 -1.85664063 5.62796875 -2.39453125 6.2734375 C-4 8 -4 8 -7 10 C-7.33 10.99 -7.66 11.98 -8 13 C-7.01 13 -6.02 13 -5 13 C-5.92321219 17.74794842 -5.92321219 17.74794842 -6.51171875 19.6796875 C-8.75570126 30.34309239 -7.1884627 40.43291385 -3.09375 50.33984375 C-2 53 -2 53 -2 55 C-1.01 55 -0.02 55 1 55 C1 56.65 1 58.3 1 60 C0.01 60.495 0.01 60.495 -1 61 C-1.33 61.66 -1.66 62.32 -2 63 C-3.20442708 61.53515625 -4.40885417 60.0703125 -5.61328125 58.60546875 C-6.95792082 56.98205798 -6.95792082 56.98205798 -8.5 55.64453125 C-15.61318683 47.84595923 -15.85625623 36.31957489 -15.40625 26.3984375 C-14.51064689 14.6113055 -8.08600058 8.08600058 0 0 Z " fill="#3F2C4D" transform="translate(222,66)"/>
<path d="M0 0 C7.43819892 0.36731847 11.83015594 2.84709654 17.03125 8.125 C20.44751931 12.68002575 20.4129553 17.12319557 20.52734375 22.63671875 C20.03125 25.125 20.03125 25.125 18.12890625 26.95703125 C16.03125 28.125 16.03125 28.125 14.03125 28.125 C14.03125 27.135 14.03125 26.145 14.03125 25.125 C13.04125 25.455 12.05125 25.785 11.03125 26.125 C8.69825175 26.16454234 6.36416811 26.16901732 4.03125 26.125 C3.70125 24.475 3.37125 22.825 3.03125 21.125 C6.6991352 19.16310791 9.90373551 17.73198743 14.03125 17.125 C14.03125 16.795 14.03125 16.465 14.03125 16.125 C9.41125 16.125 4.79125 16.125 0.03125 16.125 C-0.29875 14.475 -0.62875 12.825 -0.96875 11.125 C2.06650486 9.10149676 3.22551202 8.80375982 6.71875 8.5 C7.52699219 8.42523438 8.33523438 8.35046875 9.16796875 8.2734375 C10.09029297 8.19996094 10.09029297 8.19996094 11.03125 8.125 C9.22009044 6.31384044 6.41846773 6.74300552 3.96875 6.5625 C2.31166016 6.43681641 2.31166016 6.43681641 0.62109375 6.30859375 C-0.23355469 6.24800781 -1.08820313 6.18742188 -1.96875 6.125 C-2.35093767 4.46885343 -2.68270102 2.80042976 -2.96875 1.125 C-1.96875 0.125 -1.96875 0.125 0 0 Z " fill="#D6C5E3" transform="translate(299.96875,149.875)"/>
<path d="M0 0 C0.38218767 1.65614657 0.71395102 3.32457024 1 5 C-1.22376874 7.22376874 -6.30211551 6.45424461 -9.3125 6.62109375 C-10.199375 6.74613281 -11.08625 6.87117187 -12 7 C-12.33 7.66 -12.66 8.32 -13 9 C-12.38511719 8.98839844 -11.77023438 8.97679687 -11.13671875 8.96484375 C-10.32847656 8.95582031 -9.52023438 8.94679687 -8.6875 8.9375 C-7.48673828 8.92009766 -7.48673828 8.92009766 -6.26171875 8.90234375 C-4 9 -4 9 -1 10 C-0.957279 11.66611905 -0.95936168 13.33382885 -1 15 C-2 16 -2 16 -4.94140625 16.09765625 C-6.13636719 16.08605469 -7.33132812 16.07445312 -8.5625 16.0625 C-10.35880859 16.04896484 -10.35880859 16.04896484 -12.19140625 16.03515625 C-13.11824219 16.02355469 -14.04507813 16.01195312 -15 16 C-11.7 17.65 -8.4 19.3 -5 21 C-5 22.32 -5 23.64 -5 25 C-6.43739513 25.02712066 -7.87493863 25.04645067 -9.3125 25.0625 C-10.51326172 25.07990234 -10.51326172 25.07990234 -11.73828125 25.09765625 C-14 25 -14 25 -17 24 C-16.34 25.32 -15.68 26.64 -15 28 C-17.93752254 27.69611836 -18.84080893 27.19330344 -20.75 24.875 C-22.33478579 21.22999269 -22.47680474 18.95066781 -22 15 C-19.05593328 8.28752787 -14.62886874 3.59670225 -7.875 0.625 C-5.14055564 0.03055557 -2.78690288 -0.16393546 0 0 Z " fill="#DCCCEA" transform="translate(236,150)"/>
<path d="M0 0 C5.09091588 4.12121762 7.02920339 11.75916467 8 18 C9.06521727 29.20862951 6.4089491 39.69668679 0 49 C-3.13349732 50.04449911 -3.98968256 49.93423645 -7 49 C-6.67 47.35 -6.34 45.7 -6 44 C-5.34 44 -4.68 44 -4 44 C-3.896875 42.96875 -3.79375 41.9375 -3.6875 40.875 C-3 37 -3 37 -1.47265625 34.2890625 C0.37368902 30.16539482 0.37512202 26.9496518 0.25 22.5 C0.24226563 21.39978516 0.24226563 21.39978516 0.234375 20.27734375 C0.1744732 16.0917055 -0.19153472 12.12056497 -1 8 C-1.66 8 -2.32 8 -3 8 C-3 6.35 -3 4.7 -3 3 C-2.01 3 -1.02 3 0 3 C0 2.01 0 1.02 0 0 Z " fill="#443253" transform="translate(320,75)"/>
<path d="M0 0 C3.81051307 1.75567028 5.31622521 3.04312923 7 7 C7.6246195 12.20836569 7.37215951 17.25568098 5 22 C1.41551959 25.25861855 -2.185084 25.51453547 -6.84765625 25.359375 C-10.08890775 24.818186 -11.78200098 23.3524232 -14 21 C-16 18 -16 18 -16 15 C-14.205625 15.1546875 -14.205625 15.1546875 -12.375 15.3125 C-8.55476852 15.2786327 -6.07276825 14.48228273 -3.1875 11.77734375 C-0.84104355 8.26537769 -0.4644624 4.12410576 0 0 Z " fill="#E2D2EF" transform="translate(325,166)"/>
<path d="M0 0 C0.08636719 0.83144531 0.17273438 1.66289062 0.26171875 2.51953125 C0.40222656 3.60621094 0.54273438 4.69289062 0.6875 5.8125 C0.81511719 6.89144531 0.94273437 7.97039062 1.07421875 9.08203125 C1.75012806 12.15177096 1.75012806 12.15177096 4.3125 13.84375 C6.78108754 14.90581673 8.65525991 15.46231016 11.3125 15.6875 C12.529375 15.790625 13.74625 15.89375 15 16 C14.4568634 19.80195622 12.84334437 21.50130343 10 24 C6.54260443 25.72869779 2.78024432 25.48966895 -1 25 C-3.87029869 23.20606332 -5.49131638 22.01736724 -7 19 C-7.1228777 17.06539059 -7.17554888 15.12597096 -7.1875 13.1875 C-7.20167969 12.14980469 -7.21585938 11.11210937 -7.23046875 10.04296875 C-6.99436294 6.92557168 -6.41312934 4.77684856 -5 2 C-1.85714286 0 -1.85714286 0 0 0 Z " fill="#E3D3F0" transform="translate(210,166)"/>
<path d="M0 0 C9 0 9 0 14 2 C14.08076963 4.45898655 14.14037143 6.91533742 14.1875 9.375 C14.22520508 10.42300781 14.22520508 10.42300781 14.26367188 11.4921875 C14.29296875 13.5234375 14.29296875 13.5234375 14 17 C9.43362969 20.04424687 5.43284541 19.12783166 0 19 C0 12.73 0 6.46 0 0 Z " fill="#342143" transform="translate(384,231)"/>
<path d="M0 0 C1.65 0.33 3.3 0.66 5 1 C5 11.23 5 21.46 5 32 C0 31 0 31 -1.75 29.25 C-5.36691146 22.73955937 -5.20527257 12.60665527 -3.36328125 5.56640625 C-2.4844234 3.50430564 -1.60274492 1.60274492 0 0 Z " fill="#EADAF7" transform="translate(194,79)"/>
<path d="M0 0 C9.19230769 0 9.19230769 0 13 3 C14.29004296 5.58008592 14.20410224 7.55741574 14.25 10.4375 C14.28867187 11.88962891 14.28867187 11.88962891 14.328125 13.37109375 C14 16 14 16 12.83984375 17.8359375 C9.08197982 20.21352444 4.27186599 19.15077174 0 19 C0 12.73 0 6.46 0 0 Z " fill="#321F40" transform="translate(261,290)"/>
<path d="M0 0 C2.4375 0.1875 2.4375 0.1875 5 1 C9.11801909 6.55932578 8.53599223 15.41365481 8 22 C6.12643678 29.87356322 6.12643678 29.87356322 4 32 C2.33382885 32.04063832 0.66611905 32.042721 -1 32 C-1.02465504 27.60343827 -1.04283842 23.2069128 -1.05493164 18.81030273 C-1.05997121 17.31355082 -1.06680287 15.81680384 -1.07543945 14.32006836 C-1.08752159 12.17300193 -1.09323191 10.02600038 -1.09765625 7.87890625 C-1.10289307 6.5854126 -1.10812988 5.29191895 -1.11352539 3.95922852 C-1 1 -1 1 0 0 Z " fill="#D8C8E5" transform="translate(337,79)"/>
<path d="M0 0 C1.89782227 -0.03673828 1.89782227 -0.03673828 3.83398438 -0.07421875 C15.12403782 -0.10893957 25.73685942 1.94052131 35.1875 8.375 C36.10789062 9.303125 36.10789062 9.303125 37.046875 10.25 C40.11935019 13.30004836 43.58341981 15.7816046 47.04296875 18.375 C49.26214842 20.44461747 49.85055505 21.41516988 50.1875 24.375 C46.62072251 23.78452677 44.77216641 22.41764332 42.125 20 C41.11759766 19.09121094 41.11759766 19.09121094 40.08984375 18.1640625 C38.1875 16.375 38.1875 16.375 36.83203125 14.83203125 C23.47556302 2.99839075 0.87852989 2.64033637 -15.8125 2.375 C-11.97611581 -1.46138419 -5.17051696 0.00509662 0 0 Z " fill="#4F3D5E" transform="translate(270.8125,43.625)"/>
<path d="M0 0 C2.97 0 5.94 0 9 0 C10 1 10 1 10.09765625 3.50390625 C10.06510417 6.3359375 10.03255208 9.16796875 10 12 C13.96 12 17.92 12 22 12 C21.979375 10.205625 21.95875 8.41125 21.9375 6.5625 C21.9161878 4.70833878 21.92773498 2.85287502 22 1 C22.33 0.67 22.66 0.34 23 0 C25.64 0 28.28 0 31 0 C31 10.89 31 21.78 31 33 C28.36 33 25.72 33 23 33 C22 32 22 32 21.90234375 29.49609375 C21.93489583 26.6640625 21.96744792 23.83203125 22 21 C17.71 21 13.42 21 9 21 C9 24.96 9 28.92 9 33 C6.03 33 3.06 33 0 33 C0 22.11 0 11.22 0 0 Z M1 1 C1 11.23 1 21.46 1 32 C3.31 32 5.62 32 8 32 C8 28.04 8 24.08 8 20 C13.28 20 18.56 20 24 20 C24 23.96 24 27.92 24 32 C25.98 32 27.96 32 30 32 C30 21.77 30 11.54 30 1 C28.02 1 26.04 1 24 1 C23.67 4.96 23.34 8.92 23 13 C18.38 13 13.76 13 9 13 C8.67 9.04 8.34 5.08 8 1 C5.69 1 3.38 1 1 1 Z " fill="#7A678A" transform="translate(65,224)"/>
<path d="M0 0 C0.75 2.1875 0.75 2.1875 1 5 C-0.625 7.75 -0.625 7.75 -3 10 C-3.845625 10.165 -4.69125 10.33 -5.5625 10.5 C-6.366875 10.665 -7.17125 10.83 -8 11 C-9.03013277 12.64821244 -10.03114628 14.31503702 -11 16 C-13.1875 16.8125 -13.1875 16.8125 -15 17 C-14.67 18.98 -14.34 20.96 -14 23 C-14.495 22.401875 -14.99 21.80375 -15.5 21.1875 C-18.79602127 18.30348139 -21.85614626 17.38128458 -26 16 C-25.67 15.34 -25.34 14.68 -25 14 C-20.71 14 -16.42 14 -12 14 C-11.67 12.35 -11.34 10.7 -11 9 C-14.96 8.67 -18.92 8.34 -23 8 C-22.67 7.01 -22.34 6.02 -22 5 C-16.06 4.505 -16.06 4.505 -10 4 C-9.67 3.01 -9.34 2.02 -9 1 C-6.03421164 -0.16513114 -3.15436364 -0.08762121 0 0 Z " fill="#4D3B5B" transform="translate(246,151)"/>
<path d="M0 0 C6.1466963 5.9890887 6.1466963 5.9890887 6.3125 11.6875 C6.25893016 16.98326174 5.12465148 19.74700216 2 24 C-1.87573501 27.52339546 -5.35896493 28.16708008 -10.5 28.25 C-11.4590625 28.27578125 -12.418125 28.3015625 -13.40625 28.328125 C-16.36443253 27.95389709 -17.20113073 27.30935919 -19 25 C-17.87851562 24.80083984 -17.87851562 24.80083984 -16.734375 24.59765625 C-15.25710938 24.33275391 -15.25710938 24.33275391 -13.75 24.0625 C-12.77546875 23.88847656 -11.8009375 23.71445313 -10.796875 23.53515625 C-7.3634367 22.90423597 -7.3634367 22.90423597 -4 22 C-2.79996657 20.18398635 -2.79996657 20.18398635 -2 18 C-1.65453125 17.44441406 -1.3090625 16.88882813 -0.953125 16.31640625 C0.38257384 13.07022014 0.18969212 10.24337433 0.125 6.75 C0.09792969 4.85507813 0.09792969 4.85507813 0.0703125 2.921875 C0.04710937 1.95765625 0.02390625 0.9934375 0 0 Z " fill="#D2C1DF" transform="translate(336,171)"/>
<path d="M0 0 C0.66 0 1.32 0 2 0 C2.61095211 8.78413362 2.2278223 14.78712054 -3 22 C-3.8971875 23.36125 -3.8971875 23.36125 -4.8125 24.75 C-9.77241346 29.85162527 -16.38267102 33.80102701 -23.55078125 34.1953125 C-25.41283203 34.16050781 -25.41283203 34.16050781 -27.3125 34.125 C-29.19388672 34.09792969 -29.19388672 34.09792969 -31.11328125 34.0703125 C-32.54220703 34.03550781 -32.54220703 34.03550781 -34 34 C-34 33.67 -34 33.34 -34 33 C-28.06 32.505 -28.06 32.505 -22 32 C-21.67 30.68 -21.34 29.36 -21 28 C-18.99609375 26.83203125 -18.99609375 26.83203125 -16.4375 25.8125 C-10.52951862 23.00239998 -6.35610415 19.68203724 -3 14 C-1.54958243 9.38015144 -0.65457294 4.79338312 0 0 Z " fill="#D0C0DE" transform="translate(295,187)"/>
<path d="M0 0 C1.59765625 1.7578125 1.59765625 1.7578125 3.0625 4.125 C3.82626953 5.35476562 3.82626953 5.35476562 4.60546875 6.609375 C9 14.14285714 9 14.14285714 9 18 C5.49010705 17.35001982 3.02757788 15.84608407 0 14 C-0.804375 13.731875 -1.60875 13.46375 -2.4375 13.1875 C-6.11120227 11.48505261 -8.24164011 8.9508036 -11 6 C-10 3 -10 3 -7.1875 1.3125 C-4 0 -4 0 0 0 Z " fill="#D4C4E1" transform="translate(326,146)"/>
<path d="M0 0 C4.11704694 0.72241198 7.30487372 2.02353711 11 4 C8.92716192 10.21851425 4.41735841 12.46302762 -1.1875 15.3125 C-6.67758186 18 -6.67758186 18 -9 18 C-9 10.43740694 -4.54617834 5.7267349 0 0 Z " fill="#D5C4E2" transform="translate(209,146)"/>
<path d="M0 0 C0.03738281 0.73605469 0.07476562 1.47210938 0.11328125 2.23046875 C0.56479263 8.9323142 1.36188123 12.84507437 5.71484375 18.05078125 C8.56556817 20.48242481 10.56419974 20.76924344 14.25 21.25 C15.32765625 21.39953125 16.4053125 21.5490625 17.515625 21.703125 C18.74539062 21.85007813 18.74539062 21.85007813 20 22 C20 22.66 20 23.32 20 24 C14.6233035 25.79223217 8.42672129 25.94958659 3.125 23.875 C2.42375 23.25625 1.7225 22.6375 1 22 C0.071875 21.236875 -0.85625 20.47375 -1.8125 19.6875 C-5.21313167 15.47157494 -4.51221755 10.19777946 -4.46875 5.046875 C-4.3140625 4.04140625 -4.159375 3.0359375 -4 2 C-1 0 -1 0 0 0 Z " fill="#D4C4E1" transform="translate(197,174)"/>
<path d="M0 0 C0.66 0 1.32 0 2 0 C1.76603516 1.48693359 1.76603516 1.48693359 1.52734375 3.00390625 C-0.42094767 16.84337384 1.40438323 27.32073541 7 40 C7.33 40.99 7.66 41.98 8 43 C2.50843718 40.82477057 0.49607556 36.08758931 -2 31 C-5.57345343 21.34156219 -5.08205041 11.05619465 -0.875 1.765625 C-0.58625 1.18296875 -0.2975 0.6003125 0 0 Z " fill="#B5A4C2" transform="translate(214,81)"/>
<path d="M0 0 C4.888125 -0.061875 4.888125 -0.061875 9.875 -0.125 C10.90093262 -0.14320801 11.92686523 -0.16141602 12.98388672 -0.18017578 C13.79100098 -0.1851709 14.59811523 -0.19016602 15.4296875 -0.1953125 C16.25710449 -0.20578613 17.08452148 -0.21625977 17.93701172 -0.22705078 C20 0 20 0 22 2 C15.4 2 8.8 2 2 2 C2 11.57 2 21.14 2 31 C12.395 30.505 12.395 30.505 23 30 C22.34 30.33 21.68 30.66 21 31 C21 31.66 21 32.32 21 33 C14.07 33 7.14 33 0 33 C0 22.11 0 11.22 0 0 Z " fill="#A28FB3" transform="translate(253,283)"/>
<path d="M0 0 C0.66 0 1.32 0 2 0 C6.51124216 9.5058317 8.33851952 21.15035853 4.875 31.375 C4.05859375 33.1171875 4.05859375 33.1171875 3 35 C2.51660156 35.88945313 2.03320312 36.77890625 1.53515625 37.6953125 C-1.34216306 42.74645006 -1.34216306 42.74645006 -3 45 C-3.66 45 -4.32 45 -5 45 C-4.67 43.35 -4.34 41.7 -4 40 C-3.34 40 -2.68 40 -2 40 C-1.896875 38.96875 -1.79375 37.9375 -1.6875 36.875 C-1 33 -1 33 0.5234375 30.2890625 C2.37125476 26.17302511 2.4101701 22.94594311 2.3125 18.5 C2.31572266 17.76652344 2.31894531 17.03304687 2.32226562 16.27734375 C2.27800776 11.77913545 1.53842953 8.26592412 0 4 C0 2.68 0 1.36 0 0 Z " fill="#D1C1DF" transform="translate(318,79)"/>
<path d="M0 0 C4.888125 -0.061875 4.888125 -0.061875 9.875 -0.125 C10.90093262 -0.14320801 11.92686523 -0.16141602 12.98388672 -0.18017578 C13.79100098 -0.1851709 14.59811523 -0.19016602 15.4296875 -0.1953125 C16.25710449 -0.20578613 17.08452148 -0.21625977 17.93701172 -0.22705078 C20 0 20 0 22 2 C15.4 2 8.8 2 2 2 C2 11.57 2 21.14 2 31 C3.65 31 5.3 31 7 31 C7 28.03 7 25.06 7 22 C7.33 22 7.66 22 8 22 C8 25.63 8 29.26 8 33 C5.36 33 2.72 33 0 33 C0 22.11 0 11.22 0 0 Z " fill="#AF9BBF" transform="translate(465,224)"/>
<path d="M0 0 C3.29680965 0.65784963 5.84117922 1.89420573 8.75 3.5625 C9.94882813 4.24505859 9.94882813 4.24505859 11.171875 4.94140625 C11.77515625 5.29074219 12.3784375 5.64007813 13 6 C13 6.99 13 7.98 13 9 C12.01 9 11.02 9 10 9 C10 10.32 10 11.64 10 13 C8.46875 14.484375 8.46875 14.484375 6.5 15.75 C5.8503125 16.17796875 5.200625 16.6059375 4.53125 17.046875 C4.0259375 17.36140625 3.520625 17.6759375 3 18 C3 17.34 3 16.68 3 16 C2.34 16 1.68 16 1 16 C1.9977758 13.00667261 2.7522025 12.05233685 5 10 C3.02 9.34 1.04 8.68 -1 8 C-0.34 7.34 0.32 6.68 1 6 C1 5.01 1 4.02 1 3 C0.34 3 -0.32 3 -1 3 C-0.67 2.01 -0.34 1.02 0 0 Z " fill="#332142" transform="translate(215,140)"/>
<path d="M0 0 C1.65 0.33 3.3 0.66 5 1 C5 11.23 5 21.46 5 32 C4.34 32 3.68 32 3 32 C2.67 22.43 2.34 12.86 2 3 C-1.19444893 5.59135148 -1.19444893 5.59135148 -1.34057617 8.4519043 C-1.32486572 9.39976807 -1.30915527 10.34763184 -1.29296875 11.32421875 C-1.28330078 12.35224609 -1.27363281 13.38027344 -1.26367188 14.43945312 C-1.23853516 15.51130859 -1.21339844 16.58316406 -1.1875 17.6875 C-1.17396484 18.77095703 -1.16042969 19.85441406 -1.14648438 20.97070312 C-1.11110643 23.64763405 -1.06174189 26.32356838 -1 29 C-4.72900874 25.27099126 -4.18378436 20.16842429 -4.25 15.125 C-4.22109239 9.61520965 -4.15491153 4.15491153 0 0 Z " fill="#A999B7" transform="translate(194,79)"/>
<path d="M0 0 C3.3 0 6.6 0 10 0 C10 0.99 10 1.98 10 3 C7.36 2.67 4.72 2.34 2 2 C2 11.57 2 21.14 2 31 C3.65 31 5.3 31 7 31 C7 24.73 7 18.46 7 12 C7.99 12.33 8.98 12.66 10 13 C9.34 13 8.68 13 8 13 C8 19.6 8 26.2 8 33 C5.36 33 2.72 33 0 33 C0 22.11 0 11.22 0 0 Z " fill="#B19EC1" transform="translate(332,224)"/>
<path d="M0 0 C0.66 0 1.32 0 2 0 C2.391875 0.94875 2.78375 1.8975 3.1875 2.875 C5.19793856 6.34127338 6.22699642 6.9802693 10 8 C10 8.66 10 9.32 10 10 C9.236875 10.226875 8.47375 10.45375 7.6875 10.6875 C4.44095547 12.27302175 3.71197206 13.90214579 2 17 C1.34 17 0.68 17 0 17 C-0.433125 16.236875 -0.86625 15.47375 -1.3125 14.6875 C-3.20048159 11.68071451 -4.88138542 10.60145073 -8 9 C-4.25 6 -4.25 6 -2 6 C-1.34 4.02 -0.68 2.04 0 0 Z " fill="#D2C2DF" transform="translate(363,149)"/>
<path d="M0 0 C3.96 0 7.92 0 12 0 C12 10.89 12 21.78 12 33 C8.7 33 5.4 33 2 33 C1.67 29.37 1.34 25.74 1 22 C0.34 22.99 -0.32 23.98 -1 25 C-0.67 22.69 -0.34 20.38 0 18 C0.99 17.67 1.98 17.34 3 17 C3 21.95 3 26.9 3 32 C5.31 32 7.62 32 10 32 C10 21.77 10 11.54 10 1 C6.7 1 3.4 1 0 1 C0 0.67 0 0.34 0 0 Z " fill="#5D4A6C" transform="translate(222,224)"/>
<path d="M0 0 C0.66 0 1.32 0 2 0 C2.433125 0.78375 2.86625 1.5675 3.3125 2.375 C5.26798281 5.41686215 6.60211849 5.98981901 10 7 C9.67 7.66 9.34 8.32 9 9 C8.21625 9.2475 7.4325 9.495 6.625 9.75 C3.10596134 11.4257327 2.45286974 13.48252588 1 17 C0.814375 16.443125 0.62875 15.88625 0.4375 15.3125 C-1.66360714 11.93245808 -4.70665994 10.14859619 -8 8 C-7.236875 7.4225 -6.47375 6.845 -5.6875 6.25 C-2.99108421 4.16642802 -2.99108421 4.16642802 -1.3125 1.75 C-0.879375 1.1725 -0.44625 0.595 0 0 Z " fill="#D4C3E1" transform="translate(170,150)"/>
<path d="M0 0 C1.37478516 0.01740234 1.37478516 0.01740234 2.77734375 0.03515625 C3.69644531 0.04417969 4.61554688 0.05320313 5.5625 0.0625 C6.27277344 0.07410156 6.98304688 0.08570313 7.71484375 0.09765625 C7.71484375 0.42765625 7.71484375 0.75765625 7.71484375 1.09765625 C4.74484375 1.09765625 1.77484375 1.09765625 -1.28515625 1.09765625 C-1.28515625 11.32765625 -1.28515625 21.55765625 -1.28515625 32.09765625 C0.69484375 32.09765625 2.67484375 32.09765625 4.71484375 32.09765625 C4.71484375 26.81765625 4.71484375 21.53765625 4.71484375 16.09765625 C5.70484375 16.42765625 6.69484375 16.75765625 7.71484375 17.09765625 C8.04484375 19.40765625 8.37484375 21.71765625 8.71484375 24.09765625 C8.05484375 23.10765625 7.39484375 22.11765625 6.71484375 21.09765625 C6.38484375 25.05765625 6.05484375 29.01765625 5.71484375 33.09765625 C-0.4375 33.1953125 -0.4375 33.1953125 -2.28515625 33.09765625 C-4.19365573 31.18915677 -3.41575258 27.78286851 -3.41796875 25.25390625 C-3.41892548 24.56961548 -3.4198822 23.88532471 -3.42086792 23.18029785 C-3.42154955 21.73103748 -3.41969648 20.28177407 -3.41552734 18.83251953 C-3.41017877 16.60702697 -3.41547285 14.38173624 -3.421875 12.15625 C-3.42121422 10.75130164 -3.41993305 9.3463534 -3.41796875 7.94140625 C-3.41684082 6.65427734 -3.41571289 5.36714844 -3.41455078 4.04101562 C-3.24299422 0.1385895 -3.24299422 0.1385895 0 0 Z " fill="#867396" transform="translate(196.28515625,223.90234375)"/>
<path d="M0 0 C6.15234375 -0.09765625 6.15234375 -0.09765625 8 0 C9 1 9 1 9.11352539 3.04125977 C9.10828857 3.91580811 9.10305176 4.79035645 9.09765625 5.69140625 C9.09443359 6.63564453 9.09121094 7.57988281 9.08789062 8.55273438 C9.07951172 9.54595703 9.07113281 10.53917969 9.0625 11.5625 C9.05798828 12.55958984 9.05347656 13.55667969 9.04882812 14.58398438 C9.03700007 17.05604849 9.02051849 19.52799518 9 22 C8.34 21.67 7.68 21.34 7 21 C7 14.73 7 8.46 7 2 C5.35 2 3.7 2 2 2 C2.33 10.58 2.66 19.16 3 28 C1 27 1 27 0 24 C-0.08239169 22.15389468 -0.10743359 20.30494836 -0.09765625 18.45703125 C-0.09443359 17.38388672 -0.09121094 16.31074219 -0.08789062 15.20507812 C-0.07951172 14.08552734 -0.07113281 12.96597656 -0.0625 11.8125 C-0.05798828 10.68134766 -0.05347656 9.55019531 -0.04882812 8.38476562 C-0.03703498 5.58979073 -0.0205765 2.7949218 0 0 Z " fill="#A692B6" transform="translate(288,224)"/>
<path d="M0 0 C7.50190503 0.37046445 11.58938839 3.09062078 17.03125 8.125 C16.70125 8.785 16.37125 9.445 16.03125 10.125 C11.36458333 10.125 6.69791667 10.125 2.03125 10.125 C2.03125 9.795 2.03125 9.465 2.03125 9.125 C6.48625 8.63 6.48625 8.63 11.03125 8.125 C9.22009044 6.31384044 6.41846773 6.74300552 3.96875 6.5625 C2.31166016 6.43681641 2.31166016 6.43681641 0.62109375 6.30859375 C-0.23355469 6.24800781 -1.08820313 6.18742188 -1.96875 6.125 C-2.35093767 4.46885343 -2.68270102 2.80042976 -2.96875 1.125 C-1.96875 0.125 -1.96875 0.125 0 0 Z " fill="#C5B5D3" transform="translate(299.96875,149.875)"/>
<path d="M0 0 C2 2 2 2 2.1953125 4.1640625 C2.16050781 5.38222656 2.16050781 5.38222656 2.125 6.625 C2.10695313 7.44226563 2.08890625 8.25953125 2.0703125 9.1015625 C2.04710937 9.72804688 2.02390625 10.35453125 2 11 C2.66 11 3.32 11 4 11 C4 21.23 4 31.46 4 42 C3.01 41.34 2.02 40.68 1 40 C0.66238965 36.95559724 0.51082557 34.1051876 0.48828125 31.0546875 C0.47033005 30.1696756 0.45237885 29.2846637 0.43388367 28.37283325 C0.37961015 25.54027096 0.34583081 22.70787874 0.3125 19.875 C0.27934192 17.95700749 0.24485369 16.03903747 0.20898438 14.12109375 C0.12387407 9.41418494 0.05714463 4.70732806 0 0 Z " fill="#392647" transform="translate(332,69)"/>
<path d="M0 0 C0.79277344 0.05671875 1.58554687 0.1134375 2.40234375 0.171875 C4.35231735 0.31283695 6.30128671 0.4675712 8.25 0.625 C8.25 2.605 8.25 4.585 8.25 6.625 C6.64592672 6.65208567 5.0417215 6.67143483 3.4375 6.6875 C2.09751953 6.70490234 2.09751953 6.70490234 0.73046875 6.72265625 C-1.75 6.625 -1.75 6.625 -4.75 5.625 C-4.75 4.635 -4.75 3.645 -4.75 2.625 C-7.06 2.625 -9.37 2.625 -11.75 2.625 C-10.53955868 7.23242865 -10.53955868 7.23242865 -8.75 11.625 C-10.07 10.965 -11.39 10.305 -12.75 9.625 C-12.75 6.985 -12.75 4.345 -12.75 1.625 C-8.74561779 -1.1952907 -4.62663461 -0.38363471 0 0 Z " fill="#493658" transform="translate(258.75,243.375)"/>
<path d="M0 0 C0.38218767 1.65614657 0.71395102 3.32457024 1 5 C-1.22376874 7.22376874 -6.30211551 6.45424461 -9.3125 6.62109375 C-10.199375 6.74613281 -11.08625 6.87117187 -12 7 C-12.33 7.66 -12.66 8.32 -13 9 C-10.03 9 -7.06 9 -4 9 C-4 9.33 -4 9.66 -4 10 C-4.83144531 9.98839844 -5.66289062 9.97679687 -6.51953125 9.96484375 C-8.14955078 9.95130859 -8.14955078 9.95130859 -9.8125 9.9375 C-11.43091797 9.92009766 -11.43091797 9.92009766 -13.08203125 9.90234375 C-16.06512169 9.86375234 -16.06512169 9.86375234 -19 11 C-17.47699008 6.88787322 -14.55736564 4.39129329 -11 2 C-7.19707277 0.37017405 -4.12588355 -0.24269903 0 0 Z " fill="#B4A3C1" transform="translate(236,150)"/>
<path d="M0 0 C1.64574566 -0.02688151 3.29161413 -0.04634123 4.9375 -0.0625 C5.85402344 -0.07410156 6.77054687 -0.08570313 7.71484375 -0.09765625 C10 0 10 0 11 1 C11.125 4.5 11.125 4.5 11 8 C10 9 10 9 7.71484375 9.09765625 C6.34005859 9.08025391 6.34005859 9.08025391 4.9375 9.0625 C4.01839844 9.05347656 3.09929687 9.04445312 2.15234375 9.03515625 C1.44207031 9.02355469 0.73179687 9.01195312 0 9 C0 6.03 0 3.06 0 0 Z " fill="#3A2749" transform="translate(473,231)"/>
<path d="M0 0 C1 1 1 1 1.0625 3.5625 C1.041875 4.366875 1.02125 5.17125 1 6 C-1.75078884 6.91692961 -3.35948913 7.10886083 -6.1875 7.0625 C-8.0746875 7.0315625 -8.0746875 7.0315625 -10 7 C-10.33 5.35 -10.66 3.7 -11 2 C-13.64 2 -16.28 2 -19 2 C-19.33 3.32 -19.66 4.64 -20 6 C-20 4.35 -20 2.7 -20 1 C-13.38354345 -0.23096866 -6.71606334 -0.33093645 0 0 Z " fill="#453255" transform="translate(43,244)"/>
<path d="M0 0 C1.23556641 0.01740234 1.23556641 0.01740234 2.49609375 0.03515625 C3.32238281 0.04417969 4.14867187 0.05320313 5 0.0625 C5.63808594 0.07410156 6.27617187 0.08570313 6.93359375 0.09765625 C7.17851562 0.7421875 7.4234375 1.38671875 7.67578125 2.05078125 C8.72937244 4.26743013 8.72937244 4.26743013 10.87890625 4.70703125 C12.89713542 4.83723958 14.91536458 4.96744792 16.93359375 5.09765625 C15.94359375 6.58265625 15.94359375 6.58265625 14.93359375 8.09765625 C11.98482533 8.1808038 9.29214005 8.10041617 6.37109375 7.84765625 C5.57767578 7.79480469 4.78425781 7.74195313 3.96679688 7.6875 C-1.90801771 7.25604479 -1.90801771 7.25604479 -3.06640625 6.09765625 C-3.19140625 3.59765625 -3.19140625 3.59765625 -3.06640625 1.09765625 C-2.06640625 0.09765625 -2.06640625 0.09765625 0 0 Z " fill="#432F52" transform="translate(257.06640625,230.90234375)"/>
<path d="M0 0 C0.99 0 1.98 0 3 0 C5.18785683 2.18785683 5.38968965 3.01127982 6 5.9375 C6.63894709 8.98961332 7.19101584 10.28652376 9 13 C10.32 13 11.64 13 13 13 C13 13.66 13 14.32 13 15 C11.68 15 10.36 15 9 15 C9 15.66 9 16.32 9 17 C11.64 17 14.28 17 17 17 C16.67 18.32 16.34 19.64 16 21 C16 20.01 16 19.02 16 18 C14.205625 18.12375 14.205625 18.12375 12.375 18.25 C7.78634724 18.19304864 5.30333665 17.38198752 2 14 C1.20073264 11.11422417 0.75287729 8.33836137 0.421875 5.36328125 C0.28265625 4.58339844 0.1434375 3.80351562 0 3 C-0.66 2.67 -1.32 2.34 -2 2 C-1.34 1.34 -0.68 0.68 0 0 Z " fill="#513F60" transform="translate(209,164)"/>
<path d="M0 0 C1.45792884 -0.05399736 2.91642712 -0.09279177 4.375 -0.125 C5.18710937 -0.14820313 5.99921875 -0.17140625 6.8359375 -0.1953125 C9 0 9 0 11 2 C11 2.99 11 3.98 11 5 C13.64 5 16.28 5 19 5 C15.36314463 7.42457025 12.63767221 7.29768407 8.4375 7.25 C7.75236328 7.25773438 7.06722656 7.26546875 6.36132812 7.2734375 C1.2533867 7.2533867 1.2533867 7.2533867 -1 5 C-0.625 2.375 -0.625 2.375 0 0 Z " fill="#422F51" transform="translate(32,231)"/>
<path d="M0 0 C1.670625 0.061875 1.670625 0.061875 3.375 0.125 C4.76931504 2.91363007 4.63160094 5.04578868 4.375 8.125 C0.5246895 10.69187367 -1.21069763 9.95788724 -5.625 9.125 C-5.75 5.75 -5.75 5.75 -5.625 2.125 C-3.625 0.125 -3.625 0.125 0 0 Z " fill="#402D4E" transform="translate(286.625,112.875)"/>
<path d="M0 0 C1.15371094 0.00322266 2.30742187 0.00644531 3.49609375 0.00976562 C4.68589844 0.01814453 5.87570312 0.02652344 7.1015625 0.03515625 C8.92107422 0.04192383 8.92107422 0.04192383 10.77734375 0.04882812 C13.76046757 0.06057271 16.74348929 0.07699785 19.7265625 0.09765625 C19.7265625 0.42765625 19.7265625 0.75765625 19.7265625 1.09765625 C11.8065625 1.42765625 3.8865625 1.75765625 -4.2734375 2.09765625 C2.3265625 2.42765625 8.9265625 2.75765625 15.7265625 3.09765625 C15.7265625 3.42765625 15.7265625 3.75765625 15.7265625 4.09765625 C14.78337158 4.08718262 13.84018066 4.07670898 12.8684082 4.06591797 C9.35536232 4.03174984 5.8424941 4.00671545 2.3293457 3.98779297 C0.81141364 3.9777608 -0.70649923 3.96413187 -2.22436523 3.94677734 C-4.4113439 3.9224059 -6.59806614 3.9111453 -8.78515625 3.90234375 C-10.75681763 3.8866333 -10.75681763 3.8866333 -12.76831055 3.87060547 C-16.11202385 4.0872004 -18.25029737 4.75818306 -21.2734375 6.09765625 C-23.5859375 5.72265625 -23.5859375 5.72265625 -25.2734375 5.09765625 C-23.23333995 4.44688329 -21.19128081 3.80225801 -19.1484375 3.16015625 C-17.44300781 2.62068359 -17.44300781 2.62068359 -15.703125 2.0703125 C-10.41503433 0.5706148 -5.49135043 -0.0271849 0 0 Z " fill="#5F4D6E" transform="translate(261.2734375,42.90234375)"/>
<path d="M0 0 C3.3 0 6.6 0 10 0 C10 10.89 10 21.78 10 33 C6.37 33 2.74 33 -1 33 C-1 32.67 -1 32.34 -1 32 C2.3 32 5.6 32 9 32 C9 21.77 9 11.54 9 1 C6.36 1 3.72 1 1 1 C1 7.6 1 14.2 1 21 C0.01 20.67 -0.98 20.34 -2 20 C-2.6875 17.9375 -2.6875 17.9375 -3 16 C-2.01 16.33 -1.02 16.66 0 17 C0 11.39 0 5.78 0 0 Z " fill="#422F52" transform="translate(354,224)"/>
<path d="M0 0 C0.99 0.33 1.98 0.66 3 1 C3.05397335 3.4377963 3.09365616 5.87439685 3.125 8.3125 C3.15013672 9.34793945 3.15013672 9.34793945 3.17578125 10.40429688 C3.21217794 14.17135396 3.14378864 15.78431704 1 19 C0.67 18.01 0.34 17.02 0 16 C-0.66 16 -1.32 16 -2 16 C-2.33 16.99 -2.66 17.98 -3 19 C-4.28134542 16.43730916 -3.6917495 15.72883252 -3 13 C-2.93311409 11.08438746 -2.91468281 9.16664408 -2.9375 7.25 C-2.94652344 6.26515625 -2.95554687 5.2803125 -2.96484375 4.265625 C-2.97644531 3.51796875 -2.98804688 2.7703125 -3 2 C-2.01 2.33 -1.02 2.66 0 3 C0 2.01 0 1.02 0 0 Z " fill="#422F50" transform="translate(334,169)"/>
<path d="M0 0 C0.33 0 0.66 0 1 0 C1.66 12.21 2.32 24.42 3 37 C2.505 35.515 2.505 35.515 2 34 C1.01 34 0.02 34 -1 34 C-1.02481344 29.96151684 -1.0429136 25.92306353 -1.05493164 21.88452148 C-1.05994454 20.51211778 -1.06675658 19.13971938 -1.07543945 17.76733398 C-1.08763857 15.78892349 -1.09272248 13.8104732 -1.09765625 11.83203125 C-1.10289307 10.64327393 -1.10812988 9.4545166 -1.11352539 8.22973633 C-1.01239479 5.35262513 -0.66550193 2.79326587 0 0 Z " fill="#2E1C3C" transform="translate(200,76)"/>
<path d="M0 0 C2 1 2 1 2.9375 3 C3.8891846 5.34608221 3.8891846 5.34608221 7 6 C7 6.66 7 7.32 7 8 C6.401875 8.268125 5.80375 8.53625 5.1875 8.8125 C3.02775192 9.98493467 1.64209744 11.19369282 0 13 C-0.78375 12.360625 -1.5675 11.72125 -2.375 11.0625 C-4.79539281 9.01857687 -4.79539281 9.01857687 -7 8 C-7 7.34 -7 6.68 -7 6 C-5.33720673 4.9935725 -3.67016516 3.99414593 -2 3 C-1.34 2.01 -0.68 1.02 0 0 Z " fill="#BFAECC" transform="translate(340,129)"/>
<path d="M0 0 C-0.1875 1.8125 -0.1875 1.8125 -1 4 C-1.78375 4.391875 -2.5675 4.78375 -3.375 5.1875 C-7.31538933 7.90824501 -7.80063807 11.52670415 -9 16 C-9.33 16.99 -9.66 17.98 -10 19 C-10.99 19 -11.98 19 -13 19 C-13.10422214 11.73422822 -11.75417511 7.7491128 -6.69140625 2.49609375 C-4.25043118 0.33698647 -3.32813764 0 0 0 Z " fill="#AA99B7" transform="translate(259,173)"/>
<path d="M0 0 C2.31 1.98 4.62 3.96 7 6 C5.7934375 7.175625 5.7934375 7.175625 4.5625 8.375 C2.01309583 10.71982856 2.01309583 10.71982856 1 13 C0.34 13 -0.32 13 -1 13 C-1.2475 12.38125 -1.495 11.7625 -1.75 11.125 C-3.20628639 8.64931313 -4.37812506 8.04874998 -7 7 C-7 6.34 -7 5.68 -7 5 C-5.35666496 3.96210419 -3.68756133 2.96432076 -2 2 C-1.34 1.34 -0.68 0.68 0 0 Z " fill="#D1C1DF" transform="translate(194,130)"/>
<path d="M0 0 C0.99 0 1.98 0 3 0 C2.06379974 11.807587 2.06379974 11.807587 -2.25 15.75 C-5.49888344 18.07938813 -7.97843444 18.58852179 -12 18 C-10.68 17.34 -9.36 16.68 -8 16 C-8.66 15.67 -9.32 15.34 -10 15 C-9 13 -9 13 -5.9375 11.875 C-4.4834375 11.441875 -4.4834375 11.441875 -3 11 C-3 8.03 -3 5.06 -3 2 C-2.67 2 -2.34 2 -2 2 C-2 4.64 -2 7.28 -2 10 C-1.34 10 -0.68 10 0 10 C0 6.7 0 3.4 0 0 Z " fill="#402D4E" transform="translate(323,164)"/>
<path d="M0 0 C2.5 0.25 2.5 0.25 4.5 2.25 C4.6875 5.3125 4.6875 5.3125 4.5 8.25 C3.5 9.25 3.5 9.25 0 9.375 C-3.5 9.25 -3.5 9.25 -4.5 8.25 C-4.6875 5.3125 -4.6875 5.3125 -4.5 2.25 C-2.5 0.25 -2.5 0.25 0 0 Z " fill="#2F1C3E" transform="translate(248.5,112.75)"/>
<path d="M0 0 C-2.14753655 2.39762941 -3.90670958 3.55957647 -6.94140625 4.60546875 C-7.68970703 4.86650391 -8.43800781 5.12753906 -9.20898438 5.39648438 C-9.98564453 5.65751953 -10.76230469 5.91855469 -11.5625 6.1875 C-12.34302734 6.46013672 -13.12355469 6.73277344 -13.92773438 7.01367188 C-19.69754464 9 -19.69754464 9 -22 9 C-21.38671875 6.64453125 -21.38671875 6.64453125 -20 4 C-13.82010142 0.98351804 -6.86622354 -0.63871847 0 0 Z " fill="#2D1A3C" transform="translate(252,46)"/>
<path d="M0 0 C1.14404297 0.00322266 2.28808594 0.00644531 3.46679688 0.00976562 C4.59150391 -0.00634766 5.71621094 -0.02246094 6.875 -0.0390625 C13.12387868 -0.04273615 17.76649137 0.29859951 23.27929688 3.32226562 C19.93222877 4.57741616 17.16554953 4.06288202 13.6953125 3.59594727 C9.07304279 3.07234537 4.42523805 2.94572521 -0.22070312 2.75976562 C-1.74050781 2.69499023 -1.74050781 2.69499023 -3.29101562 2.62890625 C-5.76747103 2.52377371 -8.24401061 2.42162726 -10.72070312 2.32226562 C-7.6004468 -0.7979907 -4.26130596 0.02771991 0 0 Z " fill="#210E30" transform="translate(265.720703125,43.677734375)"/>
<path d="M0 0 C0.33 0 0.66 0 1 0 C2.5676463 6.56548896 1.84557486 10.44984965 -1.578125 16.25 C-3 18 -3 18 -6 19 C-6.66 18.67 -7.32 18.34 -8 18 C-6.78290955 15.4643949 -5.45735584 13.10124561 -4 10.6875 C-1.98671733 7.21684107 -0.95232828 3.88867381 0 0 Z " fill="#534162" transform="translate(323,106)"/>
<path d="M0 0 C2.375 0.125 2.375 0.125 5 1 C6.875 3.375 6.875 3.375 8 6 C7.67 6.99 7.34 7.98 7 9 C1.25 8.25 1.25 8.25 -1 6 C-1.1875 3.4375 -1.1875 3.4375 -1 1 C-0.67 0.67 -0.34 0.34 0 0 Z " fill="#CDBCDA" transform="translate(289,151)"/>
<path d="M0 0 C1.65 0 3.3 0 5 0 C5.33 1.65 5.66 3.3 6 5 C1.5 9 1.5 9 -3 9 C-2.30058404 5.85262818 -1.23921302 2.97411124 0 0 Z " fill="#DACAE7" transform="translate(241,151)"/>
<path d="M0 0 C0.66 0 1.32 0 2 0 C2.05418326 2.08304538 2.09287551 4.16649768 2.125 6.25 C2.14820313 7.41015625 2.17140625 8.5703125 2.1953125 9.765625 C2.00960412 12.84095574 1.73558615 14.49304223 0 17 C-2.125 17.75 -2.125 17.75 -4 18 C-3.86722656 17.48953125 -3.73445313 16.9790625 -3.59765625 16.453125 C-2.81286658 13.23189682 -2.12807219 9.9926868 -1.4375 6.75 C-1.16808594 5.48671875 -0.89867187 4.2234375 -0.62109375 2.921875 C-0.41613281 1.95765625 -0.21117187 0.9934375 0 0 Z " fill="#DCCCE9" transform="translate(295,187)"/>
<path d="M0 0 C-1 3 -1 3 -3.21484375 4.38671875 C-4.56255859 5.03060547 -4.56255859 5.03060547 -5.9375 5.6875 C-6.83339844 6.12449219 -7.72929687 6.56148437 -8.65234375 7.01171875 C-11 8 -11 8 -13 8 C-13.33 7.01 -13.66 6.02 -14 5 C-5.92255125 -0.74031891 -5.92255125 -0.74031891 0 0 Z " fill="#E1D0EE" transform="translate(242,53)"/>
<path d="M0 0 C1.9375 0.5625 1.9375 0.5625 4 2 C4.75 5.625 4.75 5.625 5 9 C2.69 9 0.38 9 -2 9 C-1.125 1.125 -1.125 1.125 0 0 Z " fill="#A18EB2" transform="translate(163,236)"/>
<path d="M0 0 C0.66 0 1.32 0 2 0 C1.34 7.26 0.68 14.52 0 22 C-0.33 22 -0.66 22 -1 22 C-1.33 18.37 -1.66 14.74 -2 11 C-2.33 14.63 -2.66 18.26 -3 22 C-3.33 22 -3.66 22 -4 22 C-4.51345509 13.69914269 -3.70721995 7.48064025 0 0 Z " fill="#9B8AA9" transform="translate(214,81)"/>
<path d="M0 0 C1.23556641 0.01740234 1.23556641 0.01740234 2.49609375 0.03515625 C3.32238281 0.04417969 4.14867187 0.05320312 5 0.0625 C5.63808594 0.07410156 6.27617187 0.08570313 6.93359375 0.09765625 C10.99513221 6.49765625 10.99513221 6.49765625 10.68359375 9.53515625 C10.43609375 10.05078125 10.18859375 10.56640625 9.93359375 11.09765625 C9.60359375 9.11765625 9.27359375 7.13765625 8.93359375 5.09765625 C8.27359375 5.09765625 7.61359375 5.09765625 6.93359375 5.09765625 C6.60359375 4.43765625 6.27359375 3.77765625 5.93359375 3.09765625 C2.96359375 3.09765625 -0.00640625 3.09765625 -3.06640625 3.09765625 C-3.72640625 6.06765625 -4.38640625 9.03765625 -5.06640625 12.09765625 C-6.29041623 7.20161634 -5.2367669 5.52185296 -3.06640625 1.09765625 C-2.06640625 0.09765625 -2.06640625 0.09765625 0 0 Z " fill="#837093" transform="translate(221.06640625,282.90234375)"/>
<path d="M0 0 C0.66 0 1.32 0 2 0 C3.6875 2.375 3.6875 2.375 5 5 C4.67 5.66 4.34 6.32 4 7 C3.67 6.67 3.34 6.34 3 6 C2.67 10.62 2.34 15.24 2 20 C1.34 20 0.68 20 0 20 C0 13.4 0 6.8 0 0 Z " fill="#503D5F" transform="translate(340,237)"/>
<path d="M0 0 C3.16451962 0.63432938 5.51687779 1.73182928 8.25 3.4375 C8.95640625 3.86933594 9.6628125 4.30117187 10.390625 4.74609375 C10.92171875 5.15988281 11.4528125 5.57367188 12 6 C12 6.66 12 7.32 12 8 C6.37458159 7.54996653 3.38512875 6.31558515 -1 3 C-0.67 2.01 -0.34 1.02 0 0 Z " fill="#C3B3D1" transform="translate(215,140)"/>
<path d="M0 0 C5 5 5 5 6.5625 6.6875 C8.23456517 8.2141682 9.94228223 9.07757479 12 10 C9.69 9.67 7.38 9.34 5 9 C4.67 9.66 4.34 10.32 4 11 C3.401875 10.236875 2.80375 9.47375 2.1875 8.6875 C0.53040668 6.6516425 -1.10297674 4.8021721 -3 3 C-2.34 3 -1.68 3 -1 3 C-0.67 2.01 -0.34 1.02 0 0 Z " fill="#3D2A4C" transform="translate(314,150)"/>
<path d="M0 0 C0.33 0 0.66 0 1 0 C1.33 7.26 1.66 14.52 2 22 C1.01 21.34 0.02 20.68 -1 20 C-1.24922317 17.10723111 -1.32624578 14.44792629 -1.25 11.5625 C-1.24484375 10.78583984 -1.2396875 10.00917969 -1.234375 9.20898438 C-1.18884821 5.90544673 -1.05046877 3.1514063 0 0 Z " fill="#D1C0DE" transform="translate(212,89)"/>
<path d="M0 0 C0.66 0 1.32 0 2 0 C2.70088156 1.74468372 3.38524009 3.49601161 4.0625 5.25 C4.44535156 6.22453125 4.82820313 7.1990625 5.22265625 8.203125 C6.03616355 11.1301161 5.97714969 12.20814374 5 15 C4.6503582 17.33094534 4.31445513 19.66404762 4 22 C3.67 22 3.34 22 3 22 C2.95101563 21.20335938 2.90203125 20.40671875 2.8515625 19.5859375 C2.46140471 14.05645991 1.95911583 9.22430887 0 4 C0 2.68 0 1.36 0 0 Z " fill="#A392B1" transform="translate(318,79)"/>
<path d="M0 0 C1.41655793 -0.0272415 2.83327045 -0.04650467 4.25 -0.0625 C5.43335938 -0.07990234 5.43335938 -0.07990234 6.640625 -0.09765625 C8.90691002 -0.00385306 10.8288895 0.36758937 13 1 C13 2.32 13 3.64 13 5 C8.38 4.34 3.76 3.68 -1 3 C-0.67 2.01 -0.34 1.02 0 0 Z " fill="#2D1A3C" transform="translate(224,156)"/>
<path d="M0 0 C1.67542976 0.28604898 3.34385343 0.61781233 5 1 C5 1.99 5 2.98 5 4 C3.68 3.67 2.36 3.34 1 3 C0.67 12.57 0.34 22.14 0 32 C-0.33 32 -0.66 32 -1 32 C-1.02465504 27.60343827 -1.04283842 23.2069128 -1.05493164 18.81030273 C-1.05997121 17.31355082 -1.06680287 15.81680384 -1.07543945 14.32006836 C-1.08752159 12.17300193 -1.09323191 10.02600038 -1.09765625 7.87890625 C-1.10289307 6.5854126 -1.10812988 5.29191895 -1.11352539 3.95922852 C-1 1 -1 1 0 0 Z " fill="#9886A5" transform="translate(337,79)"/>
<path d="M0 0 C0.66 0.33 1.32 0.66 2 1 C1.06725891 2.12894876 0.12859878 3.25300876 -0.8125 4.375 C-1.33457031 5.00148438 -1.85664063 5.62796875 -2.39453125 6.2734375 C-4 8 -4 8 -7 10 C-7.33 10.99 -7.66 11.98 -8 13 C-7.01 13 -6.02 13 -5 13 C-5.33 14.32 -5.66 15.64 -6 17 C-6 16.34 -6 15.68 -6 15 C-6.66 15 -7.32 15 -8 15 C-8.33 15.66 -8.66 16.32 -9 17 C-9.66 15.35 -10.32 13.7 -11 12 C-9.54234835 10.37438849 -8.08385614 8.74953066 -6.625 7.125 C-5.81289062 6.22007813 -5.00078125 5.31515625 -4.1640625 4.3828125 C-2.80923795 2.89103817 -1.42494565 1.42494565 0 0 Z " fill="#604E6E" transform="translate(222,66)"/>
<path d="M0 0 C7.39485981 0.49299065 7.39485981 0.49299065 10.3125 2.9375 C11.1478125 3.9584375 11.1478125 3.9584375 12 5 C12.99 5.66 13.98 6.32 15 7 C13.68 7 12.36 7 11 7 C10.67 7.66 10.34 8.32 10 9 C8.33043913 7.69118353 6.66441696 6.37785174 5 5.0625 C4.071875 4.33160156 3.14375 3.60070312 2.1875 2.84765625 C1.465625 2.23792969 0.74375 1.62820312 0 1 C0 0.67 0 0.34 0 0 Z " fill="#C6B6D3" transform="translate(306,62)"/>
<path d="M0 0 C7.38461538 -0.36923077 7.38461538 -0.36923077 10.5 1.5 C10.995 1.995 11.49 2.49 12 3 C11.34 3 10.68 3 10 3 C10.33 4.98 10.66 6.96 11 9 C10.505 8.401875 10.01 7.80375 9.5 7.1875 C6.20397873 4.30348139 3.14385374 3.38128458 -1 2 C-0.67 1.34 -0.34 0.68 0 0 Z " fill="#3F2D4E" transform="translate(221,165)"/>
<path d="M0 0 C2.64 0 5.28 0 8 0 C8 2 8 4 8 6 C7.21882813 5.76990234 7.21882813 5.76990234 6.421875 5.53515625 C3.36721485 4.86017489 0.36984029 4.65588882 -2.75 4.4375 C-3.92046875 4.35371094 -5.0909375 4.26992187 -6.296875 4.18359375 C-7.18890625 4.12300781 -8.0809375 4.06242188 -9 4 C-9 3.67 -9 3.34 -9 3 C-6.03 3 -3.06 3 0 3 C0 2.01 0 1.02 0 0 Z " fill="#513E60" transform="translate(263,221)"/>
<path d="M0 0 C0 0.66 0 1.32 0 2 C-1.609375 3.2890625 -1.609375 3.2890625 -3.75 4.625 C-4.44609375 5.07101563 -5.1421875 5.51703125 -5.859375 5.9765625 C-8 7 -8 7 -12 7 C-9.87654283 1.40179474 -5.8147806 -0.49840977 0 0 Z " fill="#CBBAD8" transform="translate(320,141)"/>
<path d="M0 0 C3.36591866 1.44253657 5.51047079 3.33264727 8 6 C7.67 5.01 7.34 4.02 7 3 C7.66 3 8.32 3 9 3 C9 4.65 9 6.3 9 8 C8.01 8.495 8.01 8.495 7 9 C6.67 9.66 6.34 10.32 6 11 C4.98805294 9.92781799 3.99081943 8.84173622 3 7.75 C2.443125 7.14671875 1.88625 6.5434375 1.3125 5.921875 C0 4 0 4 0 0 Z " fill="#392748" transform="translate(214,118)"/>
<path d="M0 0 C0.66 0 1.32 0 2 0 C2 0.99 2 1.98 2 3 C0.01739574 4.68732277 -1.9832342 6.35366057 -4 8 C-4.33 8.99 -4.66 9.98 -5 11 C-5.99 11 -6.98 11 -8 11 C-8.33 9.02 -8.66 7.04 -9 5 C-8.01 5.33 -7.02 5.66 -6 6 C-5.38125 5.34 -4.7625 4.68 -4.125 4 C-2 2 -2 2 0 2 C0 1.34 0 0.68 0 0 Z " fill="#4B3959" transform="translate(347,135)"/>
<path d="M0 0 C0.66 0.33 1.32 0.66 2 1 C1.16855469 1.68835938 1.16855469 1.68835938 0.3203125 2.390625 C-0.40414062 3.00421875 -1.12859375 3.6178125 -1.875 4.25 C-2.59429687 4.85328125 -3.31359375 5.4565625 -4.0546875 6.078125 C-5.97052118 7.97087634 -6.96449045 9.53657727 -8 12 C-8.99 12 -9.98 12 -11 12 C-11.33 9.69 -11.66 7.38 -12 5 C-11.01 5.495 -11.01 5.495 -10 6 C-9.67 6.99 -9.34 7.98 -9 9 C-8.62875 8.071875 -8.2575 7.14375 -7.875 6.1875 C-5.67919462 2.45463085 -4.02370768 1.45538363 0 0 Z " fill="#534161" transform="translate(180,157)"/>
<path d="M0 0 C3.14344966 -0.46001702 5.2444928 -0.48859148 7.95703125 1.265625 C9.75708978 2.77606107 11.45140053 4.23148108 13 6 C13 6.66 13 7.32 13 8 C8.50202887 6.31326082 4.27113698 4.18326108 0 2 C0 1.34 0 0.68 0 0 Z " fill="#322041" transform="translate(298,51)"/>
<path d="M0 0 C1.23556641 0.01740234 1.23556641 0.01740234 2.49609375 0.03515625 C3.32238281 0.04417969 4.14867187 0.05320312 5 0.0625 C5.63808594 0.07410156 6.27617187 0.08570313 6.93359375 0.09765625 C7.26359375 1.74765625 7.59359375 3.39765625 7.93359375 5.09765625 C7.27359375 4.43765625 6.61359375 3.77765625 5.93359375 3.09765625 C2.91532722 2.82524952 -0.03011247 3.010905 -3.06640625 3.09765625 C-3.72640625 6.06765625 -4.38640625 9.03765625 -5.06640625 12.09765625 C-6.29041623 7.20161634 -5.2367669 5.52185296 -3.06640625 1.09765625 C-2.06640625 0.09765625 -2.06640625 0.09765625 0 0 Z " fill="#8F7B9F" transform="translate(310.06640625,282.90234375)"/>
<path d="M0 0 C2.64 0 5.28 0 8 0 C8 0.33 8 0.66 8 1 C5.69 1 3.38 1 1 1 C1 7.6 1 14.2 1 21 C0.01 20.67 -0.98 20.34 -2 20 C-2.6875 17.9375 -2.6875 17.9375 -3 16 C-2.01 16.33 -1.02 16.66 0 17 C0 11.39 0 5.78 0 0 Z " fill="#786588" transform="translate(354,224)"/>
<path d="M0 0 C-1.33584722 4.00754167 -3.76893828 5.37476236 -7 8 C-7.33 8.66 -7.66 9.32 -8 10 C-9.32 9.67 -10.64 9.34 -12 9 C-11.67 7.68 -11.34 6.36 -11 5 C-11 5.99 -11 6.98 -11 8 C-10.34 8 -9.68 8 -9 8 C-8.731875 7.236875 -8.46375 6.47375 -8.1875 5.6875 C-6.13551779 1.04354027 -5.2132799 0 0 0 Z " fill="#4E3C5C" transform="translate(204,135)"/>
<path d="M0 0 C3.625 0.375 3.625 0.375 7 1 C7 1.66 7 2.32 7 3 C6.401875 3.268125 5.80375 3.53625 5.1875 3.8125 C3.02775192 4.98493467 1.64209744 6.19369282 0 8 C-0.66 6.02 -1.32 4.04 -2 2 C-1.34 1.34 -0.68 0.68 0 0 Z " fill="#DFCEEC" transform="translate(340,134)"/>
<path d="M0 0 C0.99 0.33 1.98 0.66 3 1 C3.33 3.31 3.66 5.62 4 8 C3.34 7.01 2.68 6.02 2 5 C1.67 8.96 1.34 12.92 1 17 C-1.64 17 -4.28 17 -7 17 C-7 16.67 -7 16.34 -7 16 C-4.69 16 -2.38 16 0 16 C0 10.72 0 5.44 0 0 Z " fill="#9380A4" transform="translate(201,240)"/>
<path d="M0 0 C3.63 0 7.26 0 11 0 C11 0.33 11 0.66 11 1 C10.06027344 1.25523437 10.06027344 1.25523437 9.1015625 1.515625 C8.28429687 1.75796875 7.46703125 2.0003125 6.625 2.25 C5.81289063 2.48203125 5.00078125 2.7140625 4.1640625 2.953125 C1.54214546 4.2214892 1.00617682 5.32423308 0 8 C-0.33 6.68 -0.66 5.36 -1 4 C-2.98 4 -4.96 4 -7 4 C-6.67 3.34 -6.34 2.68 -6 2 C-4.02 2 -2.04 2 0 2 C0 1.34 0 0.68 0 0 Z " fill="#2C1A3B" transform="translate(298,157)"/>
<path d="M0 0 C0.66 0 1.32 0 2 0 C2 4.95 2 9.9 2 15 C4.31 15 6.62 15 9 15 C9 15.33 9 15.66 9 16 C6.36 16 3.72 16 1 16 C0.67 12.37 0.34 8.74 0 5 C-0.66 5.99 -1.32 6.98 -2 8 C-1.125 1.125 -1.125 1.125 0 0 Z " fill="#887498" transform="translate(223,241)"/>
<path d="M0 0 C2.05078125 0.03255208 4.1015625 0.06510417 6.15234375 0.09765625 C5.82234375 2.73765625 5.49234375 5.37765625 5.15234375 8.09765625 C4.82234375 8.09765625 4.49234375 8.09765625 4.15234375 8.09765625 C4.15234375 6.11765625 4.15234375 4.13765625 4.15234375 2.09765625 C0.91025808 2.448152 -0.46293329 2.65986806 -2.66015625 5.16015625 C-3.05203125 5.79953125 -3.44390625 6.43890625 -3.84765625 7.09765625 C-2.81269978 0.14866278 -2.81269978 0.14866278 0 0 Z " fill="#9885A8" transform="translate(358.84765625,282.90234375)"/>
<path d="M0 0 C0.33 1.32 0.66 2.64 1 4 C1.66 3.34 2.32 2.68 3 2 C2.51421457 5.12290635 2.0013988 7.99580359 1 11 C0.01 11 -0.98 11 -2 11 C-1.85957123 9.35369672 -1.71250671 7.70795821 -1.5625 6.0625 C-1.48128906 5.14597656 -1.40007812 4.22945312 -1.31640625 3.28515625 C-1 1 -1 1 0 0 Z " fill="#857493" transform="translate(248,181)"/>
<path d="M0 0 C2.5 1.3125 2.5 1.3125 5 3 C5 3.99 5 4.98 5 6 C0.33333333 6 -4.33333333 6 -9 6 C-9 5.67 -9 5.34 -9 5 C-4.545 4.505 -4.545 4.505 0 4 C-0.33 3.34 -0.66 2.68 -1 2 C-0.67 1.34 -0.34 0.68 0 0 Z " fill="#BAAAC8" transform="translate(311,154)"/>
<path d="M0 0 C0.33 1.32 0.66 2.64 1 4 C2.98 4 4.96 4 7 4 C7.66 2.68 8.32 1.36 9 0 C8.125 4.875 8.125 4.875 7 6 C4.32941149 6.14115161 1.67567762 6.04247107 -1 6 C-1.042721 4.33388095 -1.04063832 2.66617115 -1 1 C-0.67 0.67 -0.34 0.34 0 0 Z " fill="#8D799D" transform="translate(149,251)"/>
<path d="M0 0 C0.66 0 1.32 0 2 0 C2.33 2.31 2.66 4.62 3 7 C1.35 7 -0.3 7 -2 7 C-2.125 4.625 -2.125 4.625 -2 2 C-1.34 1.34 -0.68 0.68 0 0 Z " fill="#4C395C" transform="translate(435,237)"/>
<path d="M0 0 C2 2 2 2 2.125 4.625 C2.08375 5.40875 2.0425 6.1925 2 7 C-0.64 7 -3.28 7 -6 7 C-6.66 5.35 -7.32 3.7 -8 2 C-7.34 2 -6.68 2 -6 2 C-5.67 2.66 -5.34 3.32 -5 4 C-2.47266765 4.65555119 -2.47266765 4.65555119 0 5 C0 3.35 0 1.7 0 0 Z " fill="#AD9ABE" transform="translate(272,229)"/>
<path d="M0 0 C0.66 0 1.32 0 2 0 C1.67 0.99 1.34 1.98 1 3 C0.68338523 8.41038773 0.88126549 13.68601106 2 19 C1.34 18.67 0.68 18.34 0 18 C-0.6328125 15.1640625 -0.6328125 15.1640625 -1.125 11.625 C-1.29257813 10.46226562 -1.46015625 9.29953125 -1.6328125 8.1015625 C-2 5 -2 5 -2 2 C-1.34 1.34 -0.68 0.68 0 0 Z " fill="#72617F" transform="translate(198,170)"/>
<path d="M0 0 C-0.33 1.32 -0.66 2.64 -1 4 C-0.01 4.33 0.98 4.66 2 5 C1 6 1 6 -2.0625 6.0625 C-3.031875 6.041875 -4.00125 6.02125 -5 6 C-5.33 6.66 -5.66 7.32 -6 8 C-6 7.01 -6 6.02 -6 5 C-5.01 5 -4.02 5 -3 5 C-3 4.01 -3 3.02 -3 2 C-4.98 2 -6.96 2 -9 2 C-9 1.67 -9 1.34 -9 1 C-5.94152152 0.45627049 -3.11227195 0 0 0 Z " fill="#2A1839" transform="translate(314,175)"/>
<path d="M0 0 C0 0.99 0 1.98 0 3 C-2.31 3.33 -4.62 3.66 -7 4 C-7 3.34 -7 2.68 -7 2 C-8.98 2 -10.96 2 -13 2 C-13 1.67 -13 1.34 -13 1 C-8.60563789 0.14256349 -4.47427924 -0.08948558 0 0 Z " fill="#423050" transform="translate(314,165)"/>
<path d="M0 0 C0.33 0 0.66 0 1 0 C1.02699725 2.27076842 1.04639453 4.54162821 1.0625 6.8125 C1.07410156 8.07707031 1.08570313 9.34164062 1.09765625 10.64453125 C1 14 1 14 0 17 C-0.66 17 -1.32 17 -2 17 C-2 14.36 -2 11.72 -2 9 C-1.34 9 -0.68 9 0 9 C0 6.03 0 3.06 0 0 Z " fill="#291638" transform="translate(326,94)"/>
<path d="M0 0 C0.66 0 1.32 0 2 0 C2.33 2.31 2.66 4.62 3 7 C1.35 7 -0.3 7 -2 7 C-1.125 1.125 -1.125 1.125 0 0 Z " fill="#4B385A" transform="translate(223,296)"/>
<path d="M0 0 C3.625 -0.1875 3.625 -0.1875 7 0 C7 1.32 7 2.64 7 4 C4.03 3.67 1.06 3.34 -2 3 C-1.34 2.01 -0.68 1.02 0 0 Z " fill="#E6D5F3" transform="translate(229,152)"/>
<path d="M0 0 C0.66 0 1.32 0 2 0 C2.33 2.31 2.66 4.62 3 7 C1.35 7 -0.3 7 -2 7 C-1.125 1.125 -1.125 1.125 0 0 Z " fill="#463355" transform="translate(312,296)"/>
<path d="M0 0 C0.99 0 1.98 0 3 0 C3 1.65 3 3.3 3 5 C1.125 6.0625 1.125 6.0625 -1 7 C-1.66 6.67 -2.32 6.34 -3 6 C-2 4 -1 2 0 0 Z " fill="#443152" transform="translate(318,118)"/>
<path d="M0 0 C0.66 0.33 1.32 0.66 2 1 C1.67 1.66 1.34 2.32 1 3 C3.97 3 6.94 3 10 3 C10 3.33 10 3.66 10 4 C9.16855469 3.98839844 8.33710938 3.97679687 7.48046875 3.96484375 C5.85044922 3.95130859 5.85044922 3.95130859 4.1875 3.9375 C2.56908203 3.92009766 2.56908203 3.92009766 0.91796875 3.90234375 C-2.06512169 3.86375234 -2.06512169 3.86375234 -5 5 C-4.1875 3.0625 -4.1875 3.0625 -3 1 C-2.01 0.67 -1.02 0.34 0 0 Z " fill="#BFAECD" transform="translate(222,156)"/>
<path d="M0 0 C2.875 -0.1875 2.875 -0.1875 6 0 C6.66 0.99 7.32 1.98 8 3 C7.125 5.6875 7.125 5.6875 6 8 C5.6596875 7.071875 5.6596875 7.071875 5.3125 6.125 C3.62070165 3.38589791 2.00755839 2.94975528 -1 2 C-0.67 1.34 -0.34 0.68 0 0 Z " fill="#291737" transform="translate(242,148)"/>
<path d="M0 0 C0.33 0 0.66 0 1 0 C1 3.63 1 7.26 1 11 C0.34 9.68 -0.32 8.36 -1 7 C-1.99 7.33 -2.98 7.66 -4 8 C-3.67 6.68 -3.34 5.36 -3 4 C-2.34 4 -1.68 4 -1 4 C-0.67 2.68 -0.34 1.36 0 0 Z " fill="#3D294C" transform="translate(223,245)"/>
<path d="M0 0 C0.66 0 1.32 0 2 0 C2 0.66 2 1.32 2 2 C2.99 2.33 3.98 2.66 5 3 C4.01 3.99 3.02 4.98 2 6 C0.02 5.34 -1.96 4.68 -4 4 C-2.68 3.34 -1.36 2.68 0 2 C0 1.34 0 0.68 0 0 Z " fill="#BEADCC" transform="translate(279,194)"/>
<path d="M0 0 C1.5 1.1875 1.5 1.1875 3 3 C3.1875 5.6875 3.1875 5.6875 3 8 C2.34 8 1.68 8 1 8 C0.67 6.68 0.34 5.36 0 4 C-0.66 4 -1.32 4 -2 4 C-2.33 5.32 -2.66 6.64 -3 8 C-3 6.35 -3 4.7 -3 3 C-2.01 3 -1.02 3 0 3 C0 2.01 0 1.02 0 0 Z " fill="#3A2849" transform="translate(320,75)"/>
<path d="M0 0 C-1.20381448 2.49361571 -2.45428722 4.68143083 -4 7 C-4.99 7 -5.98 7 -7 7 C-6.22006468 2.47637516 -4.81844319 0 0 0 Z " fill="#412F50" transform="translate(221,61)"/>
<path d="M0 0 C1.57561912 3.15123823 0.69813146 5.62569792 0 9 C-1.4375 11.4375 -1.4375 11.4375 -3 13 C-3.66 13 -4.32 13 -5 13 C-4.67 11.35 -4.34 9.7 -4 8 C-3.34 8 -2.68 8 -2 8 C-1.855625 6.865625 -1.71125 5.73125 -1.5625 4.5625 C-1 1 -1 1 0 0 Z " fill="#9382A1" transform="translate(318,111)"/>
<path d="M0 0 C2.35953094 2.35953094 2.49141413 3.77895617 3 7 C1.35 7 -0.3 7 -2 7 C-1.125 1.125 -1.125 1.125 0 0 Z " fill="#3C294C" transform="translate(164,237)"/>
<path d="M0 0 C0.99 0 1.98 0 3 0 C2.34 3.96 1.68 7.92 1 12 C0.67 12 0.34 12 0 12 C0 8.04 0 4.08 0 0 Z " fill="#635171" transform="translate(323,164)"/>
<path d="M0 0 C1.14939549 4.02288421 1.57979953 6.93703419 -0.5 10.75 C-1.2425 11.86375 -1.2425 11.86375 -2 13 C-3.18414294 9.44757118 -2.69535532 8.30169438 -1.5625 4.8125 C-1.27503906 3.91144531 -0.98757813 3.01039062 -0.69140625 2.08203125 C-0.46324219 1.39496094 -0.23507812 0.70789063 0 0 Z " fill="#BDADCB" transform="translate(320,106)"/>
<path d="M0 0 C0.99 0 1.98 0 3 0 C3 3.3 3 6.6 3 10 C2.34 10 1.68 10 1 10 C0.67 6.7 0.34 3.4 0 0 Z " fill="#200D2F" transform="translate(320,164)"/>
<path d="M0 0 C2.86724686 0.57344937 3.8614515 0.8614515 6 3 C3.36 3.66 0.72 4.32 -2 5 C-1.34 3.35 -0.68 1.7 0 0 Z " fill="#3F2D4D" transform="translate(232,50)"/>
<path d="M0 0 C0.66 0.33 1.32 0.66 2 1 C1.09515208 2.15518918 0.1755794 3.29885406 -0.75 4.4375 C-1.26046875 5.07558594 -1.7709375 5.71367188 -2.296875 6.37109375 C-4.19667629 8.18810554 -5.43586908 8.60423197 -8 9 C-7.04270084 7.87411986 -6.08412105 6.7493285 -5.125 5.625 C-4.59132812 4.99851562 -4.05765625 4.37203125 -3.5078125 3.7265625 C-2.38567993 2.44163349 -1.20628025 1.20628025 0 0 Z " fill="#AC9BB9" transform="translate(223,35)"/>
<path d="M0 0 C0.33 0 0.66 0 1 0 C1 1.98 1 3.96 1 6 C0.01 6.33 -0.98 6.66 -2 7 C-2.33 8.65 -2.66 10.3 -3 12 C-4.21386936 8.35839192 -3.6674695 7.66834531 -2.0625 4.3125 C-1.49208984 3.10013672 -1.49208984 3.10013672 -0.91015625 1.86328125 C-0.60980469 1.24839844 -0.30945313 0.63351562 0 0 Z " fill="#847094" transform="translate(300,303)"/>
<path d="M0 0 C0.66 0.33 1.32 0.66 2 1 C2 1.66 2 2.32 2 3 C1.01 3 0.02 3 -1 3 C-1.33 4.65 -1.66 6.3 -2 8 C-2.66 8 -3.32 8 -4 8 C-4 7.34 -4 6.68 -4 6 C-4.66 5.67 -5.32 5.34 -6 5 C-2.25 2 -2.25 2 0 2 C0 1.34 0 0.68 0 0 Z " fill="#473555" transform="translate(320,141)"/>
<path d="M0 0 C0.66 0 1.32 0 2 0 C2.29296875 6.0546875 2.29296875 6.0546875 2 8 C1.01 8.66 0.02 9.32 -1 10 C-0.67 6.7 -0.34 3.4 0 0 Z " fill="#EADAF7" transform="translate(295,187)"/>
<path d="M0 0 C-0.3125 2.375 -0.3125 2.375 -1 5 C-1.99 5.66 -2.98 6.32 -4 7 C-3.67 5.68 -3.34 4.36 -3 3 C-3.99 2.67 -4.98 2.34 -6 2 C-2.25 0 -2.25 0 0 0 Z " fill="#877595" transform="translate(265,88)"/>
<path d="M0 0 C0.66 0.33 1.32 0.66 2 1 C1.04882866 2.1725131 0.08882991 3.33787015 -0.875 4.5 C-1.40867188 5.1496875 -1.94234375 5.799375 -2.4921875 6.46875 C-2.98976562 6.9740625 -3.48734375 7.479375 -4 8 C-4.66 8 -5.32 8 -6 8 C-4.55746343 4.63408134 -2.66735273 2.48952921 0 0 Z " fill="#4C3A5A" transform="translate(222,66)"/>
<path d="M0 0 C1.65 0 3.3 0 5 0 C5.33 1.65 5.66 3.3 6 5 C5.67 4.01 5.34 3.02 5 2 C3.02 2.99 1.04 3.98 -1 5 C-0.67 3.35 -0.34 1.7 0 0 Z " fill="#BAA9C8" transform="translate(241,151)"/>
<path d="M0 0 C0.33 0 0.66 0 1 0 C1.33 2.97 1.66 5.94 2 9 C1.01 9 0.02 9 -1 9 C-0.67 6.03 -0.34 3.06 0 0 Z " fill="#473555" transform="translate(323,106)"/>
<path d="M0 0 C1.64826111 2.96687001 2.44271087 5.65626525 3 9 C0.525 8.01 0.525 8.01 -2 7 C-1.34 4.69 -0.68 2.38 0 0 Z " fill="#907F9E" transform="translate(214,105)"/>
<path d="M0 0 C0.33 0.99 0.66 1.98 1 3 C-0.65 4.32 -2.3 5.64 -4 7 C-4 6.01 -4 5.02 -4 4 C-4.66 3.67 -5.32 3.34 -6 3 C-4.02 2.01 -2.04 1.02 0 0 Z " fill="#D6C6E3" transform="translate(220,65)"/>
<path d="M0 0 C0.6875 1.75 0.6875 1.75 1 4 C-0.3125 6.25 -0.3125 6.25 -2 8 C-2.66 8 -3.32 8 -4 8 C-2.87548273 5.0280615 -1.77706209 2.66559313 0 0 Z " fill="#5E4C6E" transform="translate(199,286)"/>
<path d="M0 0 C1.32 0.99 2.64 1.98 4 3 C3.34 5.97 2.68 8.94 2 12 C1.67 12 1.34 12 1 12 C0.67 8.04 0.34 4.08 0 0 Z " fill="#9584A3" transform="translate(336,171)"/>
<path d="M0 0 C-1.45255699 3.82946843 -3.42895561 5.12050295 -7 7 C-3.86206897 0 -3.86206897 0 0 0 Z " fill="#513F60" transform="translate(252,170)"/>
<path d="M0 0 C1.98 0 3.96 0 6 0 C5.01 0.495 5.01 0.495 4 1 C4.33 2.98 4.66 4.96 5 7 C3.29115995 5.37660195 1.62553283 3.70680947 0 2 C0 1.34 0 0.68 0 0 Z " fill="#392748" transform="translate(227,167)"/>
<path d="M0 0 C1.32 0.33 2.64 0.66 4 1 C4 2.65 4 4.3 4 6 C3.01 6 2.02 6 1 6 C0.67 4.02 0.34 2.04 0 0 Z " fill="#5D4B6C" transform="translate(338,140)"/>
<path d="M0 0 C1.98 0.66 3.96 1.32 6 2 C5.67 2.66 5.34 3.32 5 4 C3.68 4 2.36 4 1 4 C0.34 5.32 -0.32 6.64 -1 8 C-1.125 2.25 -1.125 2.25 0 0 Z " fill="#3C2A4A" transform="translate(288,148)"/>
</svg>
